<?xml version="1.0" encoding="utf-8"?>
<!-- Generator: Adobe Illustrator 27.2.0, SVG Export Plug-In . SVG Version: 6.00 Build 0)  -->
<svg version="1.1" id="Camada_2_00000037686880560169374510000017412325728800069819_"
	 xmlns="http://www.w3.org/2000/svg" xmlns:xlink="http://www.w3.org/1999/xlink" x="0px" y="0px" viewBox="0 0 95.2 74"
	 style="enable-background:new 0 0 95.2 74;" xml:space="preserve">
<style type="text/css">
	.st0{fill:#EA5E23;}
</style>
<g>
	<path class="st0" d="M89.6,16H2.3c-1.4,0-2.5-1.3-2.3-2.7L3.3,2c0.2-1.1,1.2-2,2.3-2h87.3c1.4,0,2.5,1.3,2.3,2.7L91.9,14
		C91.7,15.2,90.8,16,89.6,16z"/>
	<path class="st0" d="M89.6,45H2.3c-1.4,0-2.5-1.3-2.3-2.7L3.3,31c0.2-1.1,1.2-2,2.3-2h87.3c1.4,0,2.5,1.3,2.3,2.7L91.9,43
		C91.7,44.2,90.8,45,89.6,45z"/>
	<path class="st0" d="M89.6,74H2.3c-1.4,0-2.5-1.3-2.3-2.7L3.3,60c0.2-1.1,1.2-2,2.3-2h87.3c1.4,0,2.5,1.3,2.3,2.7L91.9,72
		C91.7,73.2,90.8,74,89.6,74z"/>
</g>
</svg>
