<?xml version="1.0" encoding="UTF-8"?>
<svg id="Camada_2" data-name="Camada 2" xmlns="http://www.w3.org/2000/svg" viewBox="0 0 42 57">
  <defs>
    <style>
      .cls-1 {
        fill: #fff;
      }

      .cls-2 {
        fill: #ea5e23;
      }
    </style>
  </defs>
  <g id="Camada_1-2" data-name="Camada 1">
    <g>
      <path class="cls-1" d="m35.27,57H6.73c-3.72,0-6.73-3.01-6.73-6.73V6.73C0,3.01,3.01,0,6.73,0h28.54c3.72,0,6.73,3.01,6.73,6.73v43.54c0,3.72-3.02,6.73-6.73,6.73Z"/>
      <path class="cls-2" d="m23.82,14.21l-13.67,13.67c-.34.34-.34.89,0,1.23l13.67,13.67c.16.16.38.25.61.25h6.8c.77,0,1.16-.94.61-1.48l-12.44-12.44c-.34-.34-.34-.89,0-1.23l12.44-12.44c.55-.55.16-1.48-.61-1.48h-6.8c-.23,0-.45.09-.61.25Z"/>
    </g>
  </g>
</svg>