<?xml version="1.0" encoding="utf-8"?>
<!-- Generator: Adobe Illustrator 27.2.0, SVG Export Plug-In . SVG Version: 6.00 Build 0)  -->
<svg version="1.1" id="Camada_2_00000132781693319543460620000008141587519149883823_"
	 xmlns="http://www.w3.org/2000/svg" xmlns:xlink="http://www.w3.org/1999/xlink" x="0px" y="0px" viewBox="0 0 203.4 37.4"
	 style="enable-background:new 0 0 203.4 37.4;" xml:space="preserve">
<style type="text/css">
	.st0{fill:#CECCCC;}
</style>
<g>
	<g>
		<path class="st0" d="M23.4,37.4H12.6c-0.2,0-0.4,0-0.7-0.1c-1.4,0-2.8-0.1-4.2-0.4c-3-0.7-5.2-2.4-6.5-5.2
			c-0.8-1.7-1.1-3.6-1.1-5.5C0,22.4,0,18.6,0,14.7c0-1.9,0-3.7,0.5-5.5C1.2,6,3.1,3.7,6.2,2.5c1.6-0.7,3.4-0.9,5.1-0.9
			c3.7,0,7.3-0.1,10.9-0.1c1.9,0,3.8,0,5.7,0.4c3.5,0.8,5.9,2.8,7.2,6.1c0.6,1.6,0.7,3.3,0.7,5c0,4.1,0,8.3,0,12.4
			c0,1.2-0.1,2.4-0.3,3.5c-0.4,2.4-1.4,4.4-3.3,6c-1.8,1.5-4,2.1-6.3,2.3C25.1,37.4,24.2,37.4,23.4,37.4L23.4,37.4z M18,34.3
			C18,34.3,18,34.2,18,34.3c1-0.1,1.9,0,2.8-0.1c2-0.1,4.1,0,6.1-0.3c2.8-0.3,4.6-2,5.3-4.7c0.3-1.1,0.4-2.3,0.4-3.4
			c0.1-3.3,0.1-6.7,0.1-10c0-1.7-0.1-3.5-0.3-5.2c-0.3-2.9-2.2-4.8-5-5.4c-1.2-0.2-2.5-0.3-3.8-0.3c-3.4-0.1-6.7-0.1-10.1,0
			c-1.6,0-3.1,0.1-4.7,0.3C6.1,5.5,4.2,7.3,3.6,10c-0.2,1.2-0.3,2.4-0.3,3.6c-0.1,2.9-0.1,5.8,0,8.7c0,2,0.1,4,0.3,6
			c0.2,2.1,1.2,3.7,3,4.8c1.1,0.7,2.4,0.9,3.7,1C12.8,34.2,15.4,34.2,18,34.3L18,34.3z"/>
		<path class="st0" d="M8.7,19.5c0-5.1,4.2-9.2,9.3-9.2c5.1,0,9.2,4.1,9.2,9.2c0,5.1-4.1,9.2-9.2,9.2C12.9,28.7,8.7,24.6,8.7,19.5
			L8.7,19.5z M18,25.4c3.3,0,6-2.7,6-6s-2.6-6-6-6c-3.3,0-6,2.7-6,6C12,22.8,14.6,25.4,18,25.4z"/>
		<path class="st0" d="M27.6,7.7c1.2,0,2.1,1,2.1,2.2c0,1.2-1,2.1-2.2,2.1c-1.2,0-2.1-1-2.1-2.2C25.4,8.6,26.4,7.7,27.6,7.7
			L27.6,7.7z"/>
	</g>
	<g>
		<path class="st0" d="M56.7,33.8c0.5-1.7,0.9-3.4,1.4-5.1c0.3-1.1,0.6-2.2,0.9-3.3c0-0.2,0-0.4-0.1-0.5c-4.3-7.9-1.7-17.7,6-22.4
			c3.3-2,6.9-2.8,10.8-2.3c6.9,0.9,12.5,5.9,14.1,12.6c2.2,9.1-3.5,18.2-12.6,20.3c-3.9,0.9-7.7,0.3-11.3-1.5
			c-0.2-0.1-0.4-0.1-0.6-0.1c-2.7,0.7-5.4,1.4-8.1,2.1C56.9,33.7,56.8,33.8,56.7,33.8L56.7,33.8z M60.7,29.8c0.1,0,0.2,0,0.2,0
			c1.5-0.4,3.1-0.8,4.6-1.2c0.3-0.1,0.6,0,0.8,0.1c3.1,1.8,6.4,2.4,9.9,1.7c7.4-1.5,12.2-8.5,10.9-16C86.1,8.1,80.6,3.2,74.2,2.9
			c-3.5-0.2-6.7,0.9-9.5,3.1c-3.1,2.6-4.8,5.9-5.1,10c-0.2,3,0.6,5.7,2.2,8.3c0.2,0.3,0.2,0.5,0.1,0.9
			C61.5,26.7,61.1,28.2,60.7,29.8L60.7,29.8z"/>
		<path class="st0" d="M68.1,9.1c0.7-0.2,1.1,0.3,1.3,0.9c0.4,1,0.8,1.9,1.2,2.9c0.1,0.3,0.1,0.6-0.1,0.9c-0.3,0.4-0.7,0.9-1,1.3
			c-0.2,0.3-0.3,0.5-0.1,0.8c1.4,2.3,3.3,4,5.8,5c0.3,0.1,0.6,0.1,0.8-0.2c0.4-0.5,0.9-1,1.3-1.6c0.2-0.3,0.5-0.4,0.8-0.2
			c1.2,0.5,2.4,1.1,3.5,1.7c0.1,0.1,0.3,0.3,0.3,0.5c0,1.8-0.6,2.6-2.4,3.4c-1.1,0.5-2.2,0.3-3.3,0c-4-1.1-7-3.6-9.3-7
			c-0.7-1-1.4-2.1-1.7-3.4c-0.4-1.8,0-3.4,1.4-4.7C66.9,9.1,67.4,9.1,68.1,9.1L68.1,9.1z"/>
	</g>
	<g>
		<path class="st0" d="M126,29.6c0-5,0-10.1,0-15.1c0-0.1,0-0.2,0-0.3h4.6v2.1c0.1-0.1,0.1-0.1,0.1-0.2c0.8-1.4,2.1-2.1,3.6-2.3
			c0.9-0.1,1.9-0.1,2.8,0.2c1.7,0.4,2.8,1.6,3.3,3.2c0.2,0.8,0.4,1.6,0.4,2.5c0,0.1,0,0.3,0,0.4c0,3.2,0,6.4,0,9.5h-4.8
			c0-2.7,0-5.4,0-8.1c0-0.5-0.1-1-0.1-1.5c-0.2-1.2-0.9-1.9-2-2c-1.6-0.1-2.7,0.5-3,2.1c-0.1,0.6-0.2,1.2-0.2,1.9c0,2.5,0,5.1,0,7.6
			L126,29.6L126,29.6z"/>
		<path class="st0" d="M118.2,29.6c0-0.1,0-0.2,0-0.3c0-4.9,0-9.9,0-14.8v-0.3h4.8c0,0.1,0,0.2,0,0.3c0,4.9,0,9.9,0,14.8
			c0,0.1,0,0.2,0,0.3C121.4,29.6,119.8,29.6,118.2,29.6L118.2,29.6z"/>
		<path class="st0" d="M117.8,8.9c0-0.1,0-0.1,0.1-0.2c0.3-1.4,1.6-2.4,3-2.2c1.4,0.1,2.5,1.3,2.5,2.8c0,1.4-1.1,2.6-2.4,2.8
			c-1.5,0.1-2.8-0.8-3.1-2.2c0-0.1,0-0.1-0.1-0.2L117.8,8.9L117.8,8.9z"/>
	</g>
	<path class="st0" d="M203.4,4.7v26.5c0,0.1-0.1,0.2-0.1,0.3c-0.3,1.8-1.3,3.1-2.9,3.9c-0.5,0.3-1.2,0.4-1.8,0.6h-10
		c0-4.2,0-8.5,0-12.8h5.4c0.2-1.4,0.5-2.8,0.7-4.2h-6.1c0-1.4,0-2.7,0-4.1c0-1.4,0.9-2.2,2.3-2.3c1.2,0,2.4,0,3.6,0
		c0.1,0,0.2,0,0.4,0V8.4c-1.7,0-3.4,0-5.1,0c-3.1,0-5.4,2.3-5.4,5.4c0,1.6,0,3.1,0,4.7c0,0.1,0,0.2,0,0.4h-4.2v4.2h4.2
		c0,4.3,0,8.5,0,12.8c-4.1,0-8.2,0-12.3,0c-0.1,0-0.1,0-0.2-0.1c-2.7-0.5-4.5-2.6-4.5-5.3c0-8.4,0-16.8,0-25.3
		c0-0.6,0.1-1.2,0.3-1.8c0.7-2.2,2.7-3.6,5.1-3.6c8,0,15.9,0,23.9,0c0.5,0,1,0,1.5,0c2.1,0.1,3.6,1.1,4.5,2.9
		C203.1,3.5,203.2,4.1,203.4,4.7L203.4,4.7z M190.8,33.8c0.1,0,0.2,0,0.3,0c2.3,0,4.6,0,6.9,0c2,0,3.3-1.4,3.3-3.3
		c0-8.4,0-16.7,0-25.1c0-2-1.4-3.3-3.3-3.3c-8.4,0-16.7,0-25.1,0c-1.9,0-3.3,1.4-3.3,3.3c0,8.4,0,16.7,0,25.1c0,0.3,0,0.6,0.1,0.9
		c0.4,1.5,1.6,2.4,3.1,2.4c3.1,0,6.2,0,9.3,0c0.1,0,0.1,0,0.2,0v-8.5h-4.2v-8.4h4.2c0-1,0-2,0-3c0-0.9,0.1-1.7,0.4-2.5
		c1.1-3.1,3.8-5,7.1-5c2.3,0,4.6,0,6.9,0c0.1,0,0.2,0,0.3,0c0,2.8,0,5.6,0,8.4h-6.3v2.1h6.5c-0.5,2.8-0.9,5.6-1.4,8.4h-5.1V33.8
		L190.8,33.8z"/>
	<g>
		<path class="st0" d="M140.3,37.2h-22.9c-3.7,0-6.8-3-6.8-6.8V7.6c0-3.7,3-6.8,6.8-6.8h22.9c3.7,0,6.8,3,6.8,6.8v22.9
			C147,34.1,144,37.2,140.3,37.2z M117.4,2.8c-2.6,0-4.8,2.1-4.8,4.8v22.9c0,2.6,2.1,4.8,4.8,4.8h22.9c2.6,0,4.8-2.1,4.8-4.8V7.6
			c0-2.6-2.1-4.8-4.8-4.8H117.4z"/>
	</g>
</g>
</svg>
