<?xml version="1.0" encoding="utf-8"?>
<!-- Generator: Adobe Illustrator 28.0.0, SVG Export Plug-In . SVG Version: 6.00 Build 0)  -->
<svg version="1.1" id="Camada_1" xmlns="http://www.w3.org/2000/svg" xmlns:xlink="http://www.w3.org/1999/xlink" x="0px" y="0px"
	 viewBox="0 0 1889.1 1883.2" style="enable-background:new 0 0 1889.1 1883.2;" xml:space="preserve">
<style type="text/css">
	.st0{display:none;}
	.st1{display:inline;}
	.st2{fill:#FFE10A;}
	.st3{opacity:0.3;fill:url(#SVGID_1_);}
	.st4{opacity:0.3;}
	.st5{fill:url(#SVGID_00000054964726239782381570000006860168784867935139_);}
	.st6{fill:url(#SVGID_00000031913970456005276630000016935530766090774708_);}
	.st7{fill:url(#SVGID_00000000939324333318169290000008659322490089436059_);}
	.st8{fill:url(#SVGID_00000163045463493493319490000015342962792867046031_);}
	.st9{fill:url(#SVGID_00000077288523997864291690000007002787327715784881_);}
	.st10{fill:url(#SVGID_00000064345438704889003900000013560110572903642803_);}
	.st11{opacity:0.56;fill:#FFFFFF;}
	.st12{fill:url(#SVGID_00000021087453408657488700000015521268910841940410_);}
	.st13{fill:url(#SVGID_00000103983643214080477420000000494259972799233669_);}
	.st14{fill:url(#SVGID_00000099625166548044734900000002768699600227371657_);}
	.st15{fill:url(#SVGID_00000018236850860084923060000014315430853206462903_);}
	.st16{fill:url(#SVGID_00000127762119731951539710000000760469177053391279_);}
	.st17{fill:url(#SVGID_00000102529804573817123340000000721858951869495448_);}
	.st18{fill:url(#SVGID_00000047760095883892876810000008633044371711335084_);}
	.st19{fill:url(#SVGID_00000090290310060053149350000002639974751724085182_);}
	.st20{fill:url(#SVGID_00000085250525609525194980000017329222016388802434_);}
	.st21{fill:url(#SVGID_00000021119842528204880220000006810972634635994241_);}
	.st22{opacity:0.36;fill:#FFFFFF;}
	.st23{fill:url(#SVGID_00000137830145122617988870000002809647537126854584_);}
	.st24{opacity:0.57;fill:#FFFFFF;}
	.st25{fill:url(#SVGID_00000099622894098127857300000009746271377358307981_);}
	.st26{fill:url(#SVGID_00000136398227505568711690000011830057371350924465_);}
	.st27{fill:url(#SVGID_00000033355510780109900290000009540353708415044737_);}
	.st28{opacity:0.64;fill:#FFFFFF;}
	.st29{fill:url(#SVGID_00000052076842892973400110000001351569721018081937_);}
	.st30{fill:url(#SVGID_00000182507487743911967960000002642491300604850609_);}
	.st31{fill:url(#SVGID_00000114050507304106646170000015779956468244841385_);}
	.st32{fill:url(#SVGID_00000111898482063794346420000017913980165928786574_);}
	.st33{fill:url(#SVGID_00000078010406284841909220000006819189632020689034_);}
	.st34{fill:url(#SVGID_00000057847601112677609630000004265194706234252441_);}
	.st35{fill:url(#SVGID_00000160191494552236851770000008017064704878546337_);}
	.st36{fill:url(#SVGID_00000135655311699873110190000005650705601672638899_);}
	.st37{fill:url(#SVGID_00000173877097150793896380000012945593557848012459_);}
	.st38{fill:url(#SVGID_00000035514286039740887700000013760634397377921412_);}
	.st39{fill:url(#SVGID_00000098182501508506589720000012435944588260488834_);}
	.st40{fill:url(#SVGID_00000058552336059760914070000001132701281168033720_);}
	.st41{fill:url(#SVGID_00000034811675531819825240000015229200732745701011_);}
	.st42{fill:url(#SVGID_00000007421808672453730160000005410184605898173837_);}
	.st43{fill:url(#SVGID_00000140715817009986535100000003888430951140554382_);}
	.st44{fill:url(#SVGID_00000179647804077716791260000011850038084067889049_);}
	.st45{fill:url(#SVGID_00000103224247014582341870000016996458971387455672_);}
	.st46{fill:url(#SVGID_00000000926585329036659290000016342259015688913838_);}
	.st47{fill:url(#SVGID_00000018219804955065032810000008494320618296737711_);}
	.st48{fill:url(#SVGID_00000018948582638222507060000000551826610132193411_);}
	.st49{fill:url(#SVGID_00000050643794280366787010000005523587062668290484_);}
	.st50{fill:url(#SVGID_00000021835453139105553610000017036187176160352675_);}
	.st51{fill:url(#SVGID_00000000945576747093814410000013447158459601713854_);}
	.st52{fill:url(#SVGID_00000150074816297075236190000013746997344790681791_);}
	.st53{fill:url(#SVGID_00000108287354224369311250000005899416120755432888_);}
	.st54{fill:url(#SVGID_00000003099087165784500480000003119690022189966745_);}
	.st55{fill:url(#SVGID_00000106125705859658322500000004043392617270515642_);}
	.st56{fill:url(#SVGID_00000107560399414333547350000017756934891721134251_);}
	.st57{fill:url(#SVGID_00000008146282664371453370000007007975444462081419_);}
	.st58{fill:url(#SVGID_00000043434402263196359210000008040647934922343088_);}
	.st59{fill:url(#SVGID_00000119118955873807837820000015618187735467128976_);}
	.st60{fill:url(#SVGID_00000113346800437320871680000003125365179891114412_);}
	.st61{fill:url(#SVGID_00000096737329051266594730000004371419835286067094_);}
	.st62{fill:#FFFFFF;}
	.st63{fill:url(#SVGID_00000071541276665440913010000012738996563815191981_);}
	.st64{fill:url(#SVGID_00000080177032780525684510000014058970148319907968_);}
	.st65{fill:url(#SVGID_00000171698480972070455430000008711920226211294350_);}
	.st66{fill:url(#SVGID_00000163762238156491812220000005557790535966788272_);}
	.st67{fill:url(#SVGID_00000099654451678723749140000012502249249080637836_);}
	.st68{fill:url(#SVGID_00000036250449855268585650000003288606278361259420_);}
	.st69{fill:url(#SVGID_00000163056558805565021010000012551086431005651605_);}
	.st70{fill:url(#SVGID_00000130642200132392148260000008133725922657010101_);}
	.st71{fill:url(#SVGID_00000026860304454823281990000007441691055024047783_);}
	.st72{fill:url(#SVGID_00000068659545396310036080000005251641688165128863_);}
	.st73{fill:url(#SVGID_00000057106584674536563890000006188194774095265165_);}
	.st74{fill:url(#SVGID_00000109725909157750408260000004914879910631478461_);}
	.st75{fill:url(#SVGID_00000168091928728513836110000014119448997770140325_);}
	.st76{fill:url(#SVGID_00000031190430962245153640000003921529222500872879_);}
	.st77{fill:url(#SVGID_00000101074322891590703130000010535631043338382999_);}
</style>
<g id="Background" class="st0">
	<g class="st1">
		<rect x="729" y="727.5" class="st2" width="750" height="500"/>
		<polygon class="st2" points="1479,1227.5 729,1227.5 1479,727.5 		"/>
	</g>
</g>
<g id="Designed_by_freepik">
</g>
<g>
	<linearGradient id="SVGID_1_" gradientUnits="userSpaceOnUse" x1="1965.792" y1="2121.2725" x2="619.9061" y2="668.57">
		<stop  offset="0" style="stop-color:#B37CFF"/>
		<stop  offset="1" style="stop-color:#F895E7"/>
	</linearGradient>
	<path class="st3" d="M1778.2,1293.4c-184.9,432.3-673.1,617.9-1055.6,586.3c-104.4-8.6-314.6-26-478.6-181.2
		c-315.1-298-266.6-920.8,35.1-1287.5c38.8-47.2,307.7-363.6,726.7-359.4c306.7,3.1,522.1,176.4,548.2,198
		c33.1,27.3,106,92.1,171.8,194.9C1880.2,686.1,1893.8,1023.3,1778.2,1293.4z"/>
	<g>
		<g>
			<g class="st4">
				
					<linearGradient id="SVGID_00000105385121530406930780000009848457041907544448_" gradientUnits="userSpaceOnUse" x1="745.0954" y1="-373.329" x2="1075.6013" y2="-373.329" gradientTransform="matrix(0.9839 0.1789 -0.1789 0.9839 -557.9215 381.8204)">
					<stop  offset="0" style="stop-color:#B37CFF"/>
					<stop  offset="1" style="stop-color:#F895E7"/>
				</linearGradient>
				<path style="fill:url(#SVGID_00000105385121530406930780000009848457041907544448_);" d="M225.5,277.4c-2.9-0.5-5-3.2-4.7-6.1
					c0.5-6.5,1.3-13.1,2.3-19.6c0.5-3.2,3.5-5.3,6.6-4.8c0,0,0.1,0,0.1,0c3.1,0.6,5.2,3.5,4.7,6.6c-1,6.2-1.7,12.4-2.2,18.6
					c-0.2,3.2-3,5.6-6.2,5.3C225.9,277.5,225.7,277.5,225.5,277.4z M234.9,227.8c-0.2,0-0.4-0.1-0.7-0.2c-3.1-0.9-4.8-4.2-3.8-7.2
					c1.9-6.3,4.1-12.5,6.6-18.6c1.2-3,4.6-4.4,7.5-3.2c3,1.2,4.4,4.6,3.2,7.5c-2.3,5.8-4.4,11.7-6.3,17.7
					C240.6,226.7,237.7,228.4,234.9,227.8z M255,181.5c-0.6-0.1-1.3-0.3-1.9-0.7c-2.8-1.6-3.7-5.1-2.1-7.9
					c3.3-5.7,6.8-11.3,10.6-16.7c1.8-2.6,5.4-3.3,8.1-1.4c2.6,1.8,3.3,5.4,1.4,8.1c-3.6,5.1-6.9,10.4-10,15.8
					C259.8,180.9,257.3,182,255,181.5z M284.9,140.9c-1-0.2-2.1-0.7-2.9-1.5c-2.3-2.2-2.5-5.8-0.3-8.2c4.5-4.8,9.2-9.5,14-13.9
					c2.4-2.1,6-2,8.2,0.4c2.2,2.4,2,6-0.4,8.2c-4.6,4.2-9.1,8.6-13.3,13.2C288.8,140.6,286.8,141.2,284.9,140.9z M323.2,107.9
					c-1.5-0.3-2.8-1.1-3.7-2.4c-1.8-2.6-1.1-6.2,1.5-8.1c5.4-3.7,11-7.2,16.8-10.4c2.8-1.6,6.3-0.6,7.9,2.2c1.6,2.8,0.6,6.3-2.2,7.9
					c-5.4,3.1-10.8,6.4-15.9,9.9C326.1,107.9,324.6,108.2,323.2,107.9z M367.7,84.3c-1.9-0.3-3.6-1.6-4.4-3.6
					c-1.2-3,0.3-6.3,3.3-7.5c6.1-2.4,12.4-4.6,18.7-6.5c3.1-0.9,6.3,0.8,7.2,3.9c0.9,3.1-0.8,6.3-3.9,7.2c-6,1.8-11.9,3.9-17.7,6.2
					C369.9,84.4,368.8,84.4,367.7,84.3z M579.1,108.7c-0.8-0.1-1.6-0.5-2.3-0.9c-5.1-3.5-10.5-6.9-15.9-10c-2.8-1.6-3.7-5.1-2.1-7.9
					c1.6-2.8,5.1-3.7,7.9-2.1c5.7,3.3,11.3,6.8,16.7,10.6c2.6,1.8,3.3,5.4,1.5,8.1C583.6,108.2,581.3,109.1,579.1,108.7z
					 M416.4,71.1c-2.4-0.4-4.3-2.3-4.7-4.8c-0.5-3.2,1.7-6.1,4.8-6.6c6.5-1,13.1-1.7,19.6-2.2c3.2-0.2,6,2.2,6.2,5.4
					c0.2,3.2-2.2,6-5.4,6.2c-6.2,0.4-12.5,1.1-18.6,2C417.7,71.2,417,71.2,416.4,71.1z M534.7,84.8c-0.4-0.1-0.8-0.2-1.1-0.3
					c-5.8-2.3-11.7-4.4-17.7-6.2c-3.1-0.9-4.8-4.2-3.9-7.2c0.9-3.1,4.2-4.8,7.2-3.9c6.3,1.9,12.6,4.1,18.6,6.6
					c3,1.2,4.4,4.6,3.2,7.5C540,83.8,537.3,85.2,534.7,84.8z M466.9,69.1c-2.9-0.5-5-3.1-4.7-6.1c0.2-3.2,3-5.6,6.2-5.4
					c6.5,0.5,13.1,1.3,19.6,2.3c0,0,0.1,0,0.1,0c3.1,0.6,5.2,3.5,4.7,6.6c-0.5,3.2-3.5,5.3-6.6,4.8c-6.2-1-12.4-1.7-18.6-2.2
					C467.3,69.1,467.1,69.1,466.9,69.1z"/>
				
					<linearGradient id="SVGID_00000175307728969473188010000005571728947529693590_" gradientUnits="userSpaceOnUse" x1="1091.6691" y1="-460.3948" x2="1110.9724" y2="-460.3948" gradientTransform="matrix(0.9839 0.1789 -0.1789 0.9839 -557.9215 381.8204)">
					<stop  offset="0" style="stop-color:#B37CFF"/>
					<stop  offset="1" style="stop-color:#F895E7"/>
				</linearGradient>
				<path style="fill:url(#SVGID_00000175307728969473188010000005571728947529693590_);" d="M610.3,134.8c-1.1-0.2-2.2-0.7-3.1-1.6
					c-2.1-2.1-4.3-4.2-6.5-6.3c-2.3-2.2-2.5-5.8-0.3-8.2c2.2-2.3,5.8-2.5,8.2-0.3c2.3,2.1,4.6,4.4,6.8,6.6c2.3,2.3,2.3,5.9,0,8.2
					C614.1,134.6,612.1,135.1,610.3,134.8z"/>
			</g>
			<g class="st4">
				
					<linearGradient id="SVGID_00000070119035569768607520000013202908703119122604_" gradientUnits="userSpaceOnUse" x1="1191.8688" y1="-312.8985" x2="1205.1152" y2="-312.8985" gradientTransform="matrix(0.9839 0.1789 -0.1789 0.9839 -557.9215 381.8204)">
					<stop  offset="0" style="stop-color:#B37CFF"/>
					<stop  offset="1" style="stop-color:#F895E7"/>
				</linearGradient>
				<path style="fill:url(#SVGID_00000070119035569768607520000013202908703119122604_);" d="M676.2,298.7c-2.8-0.5-4.8-2.9-4.8-5.8
					c0.1-3,0.1-6,0-9c-0.1-3.2,2.5-5.8,5.7-5.9c3.2-0.1,5.8,2.5,5.9,5.7c0.1,3.2,0.1,6.4,0,9.5c-0.1,3.2-2.7,5.7-5.9,5.7
					C676.8,298.8,676.5,298.8,676.2,298.7z"/>
				
					<linearGradient id="SVGID_00000157270879257947819710000005835252954350043014_" gradientUnits="userSpaceOnUse" x1="867.5183" y1="-162.2239" x2="1207.948" y2="-162.2239" gradientTransform="matrix(0.9839 0.1789 -0.1789 0.9839 -557.9215 381.8204)">
					<stop  offset="0" style="stop-color:#B37CFF"/>
					<stop  offset="1" style="stop-color:#F895E7"/>
				</linearGradient>
				<path style="fill:url(#SVGID_00000157270879257947819710000005835252954350043014_);" d="M410.4,516.2c-2.6-0.5-5.2-1-7.9-1.6
					c-3.1-0.7-5.1-3.8-4.4-6.9c0.7-3.1,3.8-5.1,6.9-4.4c6.1,1.3,12.2,2.4,18.2,3.2c3.2,0.4,5.4,3.3,5,6.5c-0.4,3.2-3.3,5.4-6.5,5
					C418,517.5,414.2,516.9,410.4,516.2z M373.2,506.2c-0.3-0.1-0.6-0.1-1-0.3c-6.1-2.2-12.1-4.7-18-7.4c-2.9-1.3-4.2-4.8-2.8-7.7
					c1.3-2.9,4.8-4.2,7.7-2.8c5.6,2.6,11.3,4.9,17.1,7c3,1.1,4.6,4.4,3.5,7.4C378.7,505.1,375.9,506.7,373.2,506.2z M452.1,519.9
					c-2.7-0.5-4.7-2.8-4.8-5.7c0-3.2,2.6-5.8,5.8-5.8c6.1,0,12.3-0.3,18.4-0.9c3.2-0.3,6,2.1,6.3,5.2c0.3,3.2-2.1,6-5.2,6.3
					c-6.4,0.6-13,0.9-19.4,0.9C452.8,520,452.5,519.9,452.1,519.9z M328.6,484.1c-0.7-0.1-1.4-0.4-2.1-0.8
					c-5.4-3.5-10.8-7.3-15.9-11.2c-2.5-1.9-3-5.6-1.1-8.1c2-2.5,5.6-3,8.1-1.1c4.9,3.7,9.9,7.3,15.1,10.6c2.7,1.7,3.5,5.3,1.7,8
					C333.2,483.6,330.9,484.5,328.6,484.1z M501.4,514.1c-2.2-0.4-4.1-2.1-4.6-4.4c-0.7-3.1,1.2-6.2,4.3-7c6-1.4,11.9-3,17.8-4.9
					c3-1,6.3,0.7,7.3,3.7c1,3-0.7,6.3-3.7,7.3c-6.2,2-12.5,3.7-18.7,5.2C503,514.2,502.2,514.2,501.4,514.1z M548.3,497.6
					c-1.8-0.3-3.4-1.5-4.2-3.2c-1.4-2.9-0.2-6.3,2.7-7.7c5.5-2.7,11-5.6,16.3-8.7c2.8-1.6,6.3-0.7,7.9,2.1c1.6,2.8,0.7,6.3-2.1,7.9
					c-5.6,3.3-11.3,6.3-17.1,9.1C550.7,497.7,549.4,497.8,548.3,497.6z M590.4,471.3c-1.3-0.2-2.6-1-3.5-2.1c-2-2.5-1.6-6.2,1-8.1
					c4.8-3.8,9.5-7.9,14-12c2.3-2.2,6-2.1,8.2,0.3c2.2,2.3,2.1,6-0.3,8.2c-4.7,4.4-9.7,8.7-14.7,12.7
					C593.7,471.2,592,471.6,590.4,471.3z M625.8,436.4c-0.9-0.2-1.8-0.6-2.6-1.2c-2.5-2-2.9-5.7-0.8-8.2c3.9-4.8,7.6-9.7,11-14.8
					c1.8-2.6,5.4-3.3,8.1-1.5c2.6,1.8,3.3,5.4,1.5,8.1c-3.6,5.3-7.5,10.6-11.6,15.6C630,436.1,627.8,436.8,625.8,436.4z
					 M652.7,394.6c-0.5-0.1-1-0.3-1.5-0.5c-2.9-1.4-4-4.9-2.6-7.8c2.7-5.5,5.2-11.2,7.5-16.9c1.2-3,4.5-4.4,7.5-3.3
					c3,1.2,4.4,4.5,3.3,7.5c-2.4,6-5,12-7.9,17.8C657.7,393.8,655.2,395.1,652.7,394.6z M669.7,348c-0.1,0-0.2,0-0.4-0.1
					c-3.1-0.8-5-3.9-4.2-7c1.1-4.4,2-8.9,2.8-13.3c0.3-1.6,0.6-3.2,0.8-4.8c0.5-3.2,3.5-5.3,6.6-4.8c3.2,0.4,5.3,3.5,4.8,6.6
					c-0.3,1.7-0.6,3.4-0.9,5.1c-0.8,4.7-1.9,9.4-3,14C675.6,346.6,672.7,348.5,669.7,348z"/>
				
					<linearGradient id="SVGID_00000028299523507048353660000014392859468165434252_" gradientUnits="userSpaceOnUse" x1="833.5828" y1="-90.4549" x2="852.64" y2="-90.4549" gradientTransform="matrix(0.9839 0.1789 -0.1789 0.9839 -557.9215 381.8204)">
					<stop  offset="0" style="stop-color:#B37CFF"/>
					<stop  offset="1" style="stop-color:#F895E7"/>
				</linearGradient>
				<path style="fill:url(#SVGID_00000028299523507048353660000014392859468165434252_);" d="M289.9,452.7c-1.1-0.2-2.2-0.8-3.1-1.6
					c-2.2-2.2-4.4-4.6-6.5-6.9c-2.2-2.4-2-6,0.4-8.2c2.4-2.2,6-2,8.2,0.4c2,2.2,4.1,4.4,6.2,6.6c2.2,2.3,2.2,5.9-0.1,8.2
					C293.7,452.5,291.7,453,289.9,452.7z"/>
			</g>
			<g>
				
					<linearGradient id="SVGID_00000166653081855331878810000016964495093301383609_" gradientUnits="userSpaceOnUse" x1="1761.3116" y1="70.2775" x2="546.9785" y2="-462.8433" gradientTransform="matrix(0.9839 0.1789 -0.1789 0.9839 -557.9215 381.8204)">
					<stop  offset="0" style="stop-color:#A737D5"/>
					<stop  offset="1" style="stop-color:#EF497A"/>
				</linearGradient>
				<path style="fill:url(#SVGID_00000166653081855331878810000016964495093301383609_);" d="M309.7,388c0.6,1,1.7,1.6,2.8,1.4
					l32.5-5.7c10.3,11.4,22.5,21.3,36.4,29l1.7,32.9c0.1,1.2,0.8,2.1,2,2.5l38,11c1.1,0.3,2.3-0.1,3-1l18.9-26.9
					c15.8,0.8,31.4-1,46.2-5.2l24.5,22.1c0.9,0.8,2.1,0.9,3.1,0.4l34.6-19.1c1-0.6,1.6-1.7,1.4-2.8l-5.7-32.5
					c11.4-10.3,21.3-22.5,29-36.4l32.9-1.7c1.2-0.1,2.1-0.8,2.5-2l11-38c0.3-1.1-0.1-2.3-1-3l-26.9-18.9c0.8-15.8-1-31.4-5.2-46.2
					l22.1-24.5c0.8-0.9,0.9-2.1,0.4-3.1l-19.1-34.6c-0.6-1-1.7-1.6-2.8-1.4l-32.5,5.7c-10.3-11.4-22.5-21.3-36.4-29l-1.7-32.9
					c-0.1-1.2-0.8-2.1-2-2.5l-38-11c-1.1-0.3-2.3,0.1-3,1l-18.9,26.9c-15.8-0.8-31.4,1-46.2,5.2l-24.5-22.1
					c-0.9-0.8-2.1-0.9-3.1-0.4l-34.6,19.1c-1,0.6-1.6,1.7-1.4,2.8l5.7,32.5c-11.4,10.3-21.3,22.5-29,36.4l-32.9,1.7
					c-1.2,0.1-2.1,0.8-2.5,2l-11,38c-0.3,1.1,0.1,2.3,1,3l26.9,18.9c-0.8,15.8,1,31.4,5.2,46.2l-22.1,24.5c-0.8,0.9-0.9,2.1-0.4,3.1
					L309.7,388z"/>
				<path class="st11" d="M444.9,325.9c-19.1-3.5-33.3-20.5-32.6-40.4c0.7-21.9,19.2-39.1,41.1-38.4c10.6,0.4,20.4,4.8,27.7,12.6
					c7.3,7.8,11,17.9,10.7,28.5c-0.7,21.9-19.2,39.1-41.1,38.4C448.8,326.4,446.8,326.2,444.9,325.9z M457.6,256.8
					c-1.5-0.3-3-0.4-4.5-0.5c-16.8-0.6-30.9,12.6-31.5,29.4c-0.6,16.8,12.6,30.9,29.4,31.5c16.8,0.6,30.9-12.6,31.5-29.4
					c0.3-8.1-2.6-15.9-8.2-21.8C469.8,261.1,464,257.9,457.6,256.8z"/>
				<path class="st11" d="M435.5,382.5c-3.3-0.6-6.5-1.4-9.8-2.3l0,0c-1-0.3-2-0.6-3-0.9c-5-1.6-9.8-3.6-14.5-6
					c-0.1,0-0.1-0.1-0.2-0.1c-0.2-0.1-0.4-0.2-0.5-0.3c-0.3-0.2-0.7-0.4-1-0.6c-0.9-0.5-1.4-1.5-1.2-2.5c0-0.2,0.1-0.5,0.2-0.7
					c0.6-1.1,2-1.5,3.1-0.9c5.8,3.1,12,5.6,18.4,7.5c31.7,9.1,64.4,0.6,87.4-19.7c12.8-11.3,22.7-26.3,27.8-43.9
					c0.9-3.1,1.6-6.2,2.2-9.3c3.8-21,0.3-42.5-10.1-61.5c-12-21.8-31.8-37.5-55.7-44.4c-49.3-14.2-101,14.3-115.2,63.6
					c-0.9,3-1.6,6.1-2.2,9.2c-2.4,13.4-1.9,27.2,1.6,40.4c0.1,0.3,0.1,0.7,0,1c-0.2,0.9-0.8,1.6-1.7,1.8c-1.2,0.3-2.5-0.4-2.8-1.6
					c-3.7-13.8-4.2-28.3-1.7-42.4c0.6-3.2,1.3-6.5,2.3-9.7c14.9-51.8,69.2-81.7,121-66.8c25.1,7.2,45.8,23.8,58.5,46.7
					c11,19.9,14.7,42.5,10.7,64.5c-0.6,3.3-1.4,6.5-2.3,9.8c-7.2,25.1-23.8,45.8-46.7,58.5C480.1,382.8,457.5,386.5,435.5,382.5z"/>
			</g>
		</g>
		<g>
			<g class="st4">
				
					<linearGradient id="SVGID_00000049904690106844301330000012253287465648929415_" gradientUnits="userSpaceOnUse" x1="548.497" y1="-98.0356" x2="557.9182" y2="-98.0356" gradientTransform="matrix(0.9839 0.1789 -0.1789 0.9839 -557.9215 381.8204)">
					<stop  offset="0" style="stop-color:#B37CFF"/>
					<stop  offset="1" style="stop-color:#F895E7"/>
				</linearGradient>
				<path style="fill:url(#SVGID_00000049904690106844301330000012253287465648929415_);" d="M3.6,392.3c-1.5-0.3-2.7-1.5-2.9-3.1
					c-0.3-3-0.6-6.1-0.7-9.1c-0.1-2,1.4-3.6,3.4-3.7c2-0.1,3.6,1.4,3.7,3.4c0.1,2.9,0.4,5.8,0.7,8.7c0.2,2-1.2,3.7-3.2,3.9
					C4.3,392.4,3.9,392.4,3.6,392.3z"/>
				
					<linearGradient id="SVGID_00000137825244596321688000000010732882058488906386_" gradientUnits="userSpaceOnUse" x1="544.6815" y1="-203.875" x2="729.3154" y2="-203.875" gradientTransform="matrix(0.9839 0.1789 -0.1789 0.9839 -557.9215 381.8204)">
					<stop  offset="0" style="stop-color:#B37CFF"/>
					<stop  offset="1" style="stop-color:#F895E7"/>
				</linearGradient>
				<path style="fill:url(#SVGID_00000137825244596321688000000010732882058488906386_);" d="M3.2,364.8c-1.8-0.3-3.1-2-2.9-3.8
					c0.4-5.2,1.1-10.5,2-15.6c0.2-1.1,0.4-2.2,0.6-3.3c0.4-1.9,2.4-3.1,4.2-2.8c1.9,0.4,3.2,2.3,2.8,4.2c-0.2,1-0.4,2.1-0.6,3.1
					c-0.9,4.9-1.5,9.9-1.9,14.9c-0.2,2-1.9,3.4-3.8,3.3C3.5,364.8,3.4,364.8,3.2,364.8z M10.7,328.4c-0.2,0-0.3-0.1-0.5-0.1
					c-1.9-0.6-2.9-2.7-2.3-4.5c2-6,4.4-12,7.1-17.7c0.9-1.8,3-2.5,4.8-1.7c1.8,0.9,2.5,3,1.7,4.8c-2.6,5.4-4.9,11.1-6.8,16.8
					C14.1,327.7,12.4,328.7,10.7,328.4z M26.7,294.8c-0.4-0.1-0.9-0.3-1.3-0.5c-1.7-1.1-2.1-3.3-1.1-4.9c3.4-5.3,7.2-10.5,11.3-15.4
					c1.3-1.5,3.5-1.7,5-0.5c1.5,1.3,1.7,3.5,0.5,5c-3.9,4.6-7.5,9.6-10.7,14.7C29.5,294.5,28.1,295.1,26.7,294.8z M50.5,266.3
					c-0.7-0.1-1.4-0.5-2-1.1c-1.4-1.4-1.3-3.7,0.2-5.1c4.6-4.3,9.6-8.4,14.7-12.1c1.6-1.2,3.8-0.8,5,0.8c1.2,1.6,0.8,3.8-0.8,5
					c-4.9,3.5-9.6,7.4-14,11.6C52.7,266.2,51.5,266.5,50.5,266.3z M80.5,244.4c-1-0.2-1.9-0.8-2.5-1.8c-1-1.7-0.3-3.9,1.4-4.9
					c5.5-3.1,11.3-5.8,17.2-8.2c1.8-0.7,3.9,0.1,4.7,2c0.7,1.8-0.1,3.9-2,4.7c-5.6,2.3-11.1,4.9-16.4,7.8
					C82.1,244.4,81.3,244.5,80.5,244.4z M114.9,230.5c-1.3-0.2-2.4-1.2-2.8-2.6c-0.5-1.9,0.6-3.9,2.5-4.4c6.1-1.6,12.4-2.9,18.7-3.8
					c2-0.3,3.8,1.1,4,3.1c0.3,2-1.1,3.8-3.1,4c-6,0.8-12,2-17.8,3.6C116,230.5,115.4,230.6,114.9,230.5z M151.7,225.4
					c-1.7-0.3-2.9-1.7-2.9-3.5c0-2,1.6-3.6,3.5-3.6c6.3-0.1,12.7,0.2,19,0.9c2,0.3,3.4,2,3.2,4c-0.2,2-2,3.4-3.9,3.2
					c-6-0.7-12.1-1-18.1-0.9C152.2,225.4,151.9,225.4,151.7,225.4z M206.5,234.9c-0.2,0-0.4-0.1-0.6-0.2c-4.9-1.8-10-3.4-15.1-4.7
					c-0.8-0.2-1.5-0.4-2.3-0.6c-1.9-0.5-3.1-2.4-2.7-4.3c0.5-1.9,2.4-3.2,4.3-2.7c0.8,0.2,1.6,0.4,2.4,0.6c5.4,1.4,10.7,3,15.8,4.9
					c1.9,0.7,2.8,2.7,2.1,4.6C209.8,234.2,208.1,235.2,206.5,234.9z"/>
			</g>
			<g class="st4">
				
					<linearGradient id="SVGID_00000124140808663622692800000008175030793773303686_" gradientUnits="userSpaceOnUse" x1="627.09" y1="-26.877" x2="837.8258" y2="-26.877" gradientTransform="matrix(0.9839 0.1789 -0.1789 0.9839 -557.9215 381.8204)">
					<stop  offset="0" style="stop-color:#B37CFF"/>
					<stop  offset="1" style="stop-color:#F895E7"/>
				</linearGradient>
				<path style="fill:url(#SVGID_00000124140808663622692800000008175030793773303686_);" d="M128.9,525.3c-1.9-0.3-3.2-2.2-2.9-4.1
					c0.3-1.9,2.2-3.3,4.1-2.9c5.9,1,11.8,1.6,17.8,1.9c2,0.1,3.5,1.8,3.4,3.7c-0.1,2-1.8,3.5-3.7,3.4
					C141.3,527,135.1,526.4,128.9,525.3C128.9,525.3,128.9,525.3,128.9,525.3z M111,521.2c-0.1,0-0.3-0.1-0.4-0.1
					c-6-1.8-11.9-3.9-17.6-6.4c-1.8-0.8-2.7-2.9-1.9-4.7c0.8-1.8,2.9-2.6,4.7-1.9c5.5,2.4,11.1,4.4,16.8,6.1c1.9,0.6,3,2.5,2.4,4.4
					C114.6,520.5,112.8,521.5,111,521.2z M165.4,527c-1.6-0.3-2.8-1.6-2.9-3.2c-0.2-2,1.3-3.7,3.3-3.8c5.9-0.5,11.9-1.3,17.7-2.5
					c1.9-0.4,3.8,0.9,4.2,2.8c0.4,1.9-0.9,3.8-2.8,4.2c-6.1,1.2-12.3,2.1-18.6,2.6C166,527.1,165.7,527,165.4,527z M77.5,506.7
					c-0.4-0.1-0.8-0.2-1.2-0.4c-5.4-3.1-10.6-6.7-15.6-10.4c-1.6-1.2-1.9-3.4-0.7-5c1.2-1.6,3.4-1.9,5-0.7c4.7,3.6,9.7,7,14.8,10
					c1.7,1,2.3,3.2,1.3,4.9C80.4,506.3,78.9,507,77.5,506.7z M201.2,519.8c-1.2-0.2-2.3-1.1-2.8-2.4c-0.6-1.9,0.4-3.9,2.3-4.5
					c5.6-1.9,11.2-4.1,16.6-6.6c1.8-0.8,3.9-0.1,4.8,1.7c0.8,1.8,0.1,3.9-1.7,4.8c-5.6,2.7-11.5,5-17.4,7
					C202.4,519.9,201.8,519.9,201.2,519.8z M234.3,504.2c-1-0.2-1.8-0.7-2.4-1.6c-1.1-1.7-0.6-3.9,1.1-4.9c5-3.2,9.9-6.7,14.5-10.4
					c1.5-1.2,3.8-1,5,0.5c1.2,1.5,1,3.8-0.5,5c-4.8,3.9-10,7.6-15.2,10.9C236,504.2,235.1,504.3,234.3,504.2z M262.6,481.1
					c-0.7-0.1-1.3-0.4-1.8-0.9c-1.4-1.4-1.5-3.6-0.1-5.1c4.1-4.3,8-8.9,11.6-13.6c1.2-1.6,3.4-1.9,5-0.7c1.6,1.2,1.9,3.4,0.7,5
					c-3.7,5-7.8,9.8-12.2,14.3C265,481,263.8,481.3,262.6,481.1z"/>
				
					<linearGradient id="SVGID_00000047762422761292398270000011995413575691878583_" gradientUnits="userSpaceOnUse" x1="603.9229" y1="-13.688" x2="618.3356" y2="-13.688" gradientTransform="matrix(0.9839 0.1789 -0.1789 0.9839 -557.9215 381.8204)">
					<stop  offset="0" style="stop-color:#B37CFF"/>
					<stop  offset="1" style="stop-color:#F895E7"/>
				</linearGradient>
				<path style="fill:url(#SVGID_00000047762422761292398270000011995413575691878583_);" d="M48.3,484.4c-0.7-0.1-1.3-0.4-1.9-1
					c-2.2-2.1-4.3-4.4-6.3-6.6c-1.3-1.5-1.2-3.7,0.2-5.1c1.5-1.3,3.7-1.2,5.1,0.2c1.9,2.1,4,4.2,6.1,6.3c1.4,1.4,1.4,3.6,0.1,5.1
					C50.6,484.3,49.4,484.6,48.3,484.4z"/>
			</g>
			<g>
				
					<linearGradient id="SVGID_00000130634054604518841550000004458447781441318018_" gradientUnits="userSpaceOnUse" x1="1666.0449" y1="286.9696" x2="451.7125" y2="-246.1508" gradientTransform="matrix(0.9839 0.1789 -0.1789 0.9839 -557.9215 381.8204)">
					<stop  offset="0" style="stop-color:#A737D5"/>
					<stop  offset="1" style="stop-color:#EF497A"/>
				</linearGradient>
				<path style="fill:url(#SVGID_00000130634054604518841550000004458447781441318018_);" d="M59.5,439.5c0.4,0.7,1.1,1,1.9,0.9
					l21.7-3.8c6.9,7.6,15.1,14.2,24.3,19.4l1.1,22c0,0.8,0.6,1.4,1.3,1.6l25.4,7.3c0.7,0.2,1.5-0.1,2-0.7l12.7-18
					c10.6,0.5,21-0.7,30.9-3.5l16.4,14.8c0.6,0.5,1.4,0.6,2.1,0.2l23.2-12.8c0.7-0.4,1-1.1,0.9-1.9l-3.8-21.7
					c7.6-6.9,14.2-15.1,19.4-24.3l22-1.1c0.8,0,1.4-0.6,1.6-1.3l7.3-25.4c0.2-0.7-0.1-1.5-0.7-2l-18-12.7c0.5-10.6-0.7-21-3.5-30.9
					l14.8-16.4c0.5-0.6,0.6-1.4,0.2-2.1L250.1,304c-0.4-0.7-1.1-1-1.9-0.9l-21.7,3.8c-6.9-7.6-15.1-14.2-24.3-19.4l-1.1-22
					c0-0.8-0.6-1.4-1.3-1.6l-25.4-7.3c-0.7-0.2-1.5,0.1-2,0.7l-12.7,18c-10.6-0.5-21,0.7-30.9,3.5l-16.4-14.8
					c-0.6-0.5-1.4-0.6-2.1-0.2L87,276.4c-0.7,0.4-1,1.1-0.9,1.9l3.8,21.7c-7.6,6.9-14.2,15.1-19.4,24.3l-22,1.1
					c-0.8,0-1.4,0.6-1.6,1.3l-7.3,25.4c-0.2,0.7,0.1,1.5,0.7,2l18,12.7c-0.5,10.6,0.7,21,3.5,30.9l-14.8,16.4
					c-0.5,0.6-0.6,1.4-0.2,2.1L59.5,439.5z"/>
				<path class="st11" d="M149.9,398.3c-5.7-1-10.9-3.8-14.9-8.1c-4.9-5.3-7.5-12.2-7.3-19.4c0.5-14.9,13-26.6,28-26.1
					c14.9,0.5,26.7,13,26.2,28c-0.2,7.2-3.3,13.9-8.6,18.9c-5.3,4.9-12.2,7.5-19.4,7.3C152.5,398.7,151.2,398.6,149.9,398.3z
					 M158.3,352.1c-0.9-0.2-1.9-0.3-2.9-0.3c-11-0.4-20.2,8.3-20.6,19.2c-0.2,5.3,1.7,10.4,5.4,14.3c3.6,3.9,8.6,6.1,13.9,6.3l0,0
					c5.3,0.2,10.4-1.7,14.3-5.4c3.9-3.6,6.1-8.6,6.3-13.9C175,362.4,167.9,353.9,158.3,352.1z"/>
				<path class="st11" d="M143.2,437.8c-2.2-0.4-4.5-0.9-6.7-1.6c-4.4-1.3-8.7-3-12.7-5.1c-0.2-0.1-0.4-0.2-0.5-0.3
					c-1.4-0.8-2.1-2.3-1.8-3.8c0.1-0.4,0.2-0.7,0.4-1.1c0.9-1.7,3.1-2.4,4.8-1.5c3.8,2,7.8,3.6,11.9,4.8l0,0
					c0.2,0.1,0.5,0.1,0.7,0.2c9.8,2.7,19.9,2.9,29.5,0.7c5.2-1.2,10.3-3.1,15.2-5.7c0,0,0.1,0,0.1-0.1c0.1-0.1,0.2-0.1,0.4-0.2
					c14.1-7.8,24.3-20.6,28.8-36.1c0.6-2,1-4,1.4-6c2.5-13.6,0.2-27.5-6.6-39.8c-7.8-14.1-20.6-24.3-36.1-28.8
					c-15.5-4.5-31.7-2.6-45.8,5.1c-14.1,7.8-24.3,20.6-28.8,36.1c-0.6,2-1,4-1.4,6c-1.6,8.7-1.2,17.6,1,26.1
					c0.1,0.5,0.2,1.1,0.1,1.6c-0.2,1.3-1.2,2.5-2.6,2.8c-1.9,0.5-3.9-0.6-4.4-2.5c-2.5-9.5-2.9-19.5-1.2-29.2
					c0.4-2.2,0.9-4.5,1.6-6.7c5-17.3,16.4-31.6,32.2-40.3c15.8-8.7,34-10.8,51.3-5.8c17.3,5,31.6,16.4,40.3,32.2
					c7.6,13.7,10.1,29.3,7.3,44.5c-0.4,2.3-0.9,4.5-1.6,6.8C210.4,423.6,176.8,443.9,143.2,437.8z"/>
			</g>
		</g>
	</g>
	<g>
		
			<linearGradient id="SVGID_00000055683406422433781120000010632630596286878615_" gradientUnits="userSpaceOnUse" x1="971.7087" y1="1747.1672" x2="953.2435" y2="1381.5591">
			<stop  offset="0" style="stop-color:#2B3582"/>
			<stop  offset="1" style="stop-color:#150E42"/>
		</linearGradient>
		<polygon style="fill:url(#SVGID_00000055683406422433781120000010632630596286878615_);" points="776.3,1334.2 737.1,1604.7 
			1191.9,1604.7 1132.6,1334.2 		"/>
		
			<linearGradient id="SVGID_00000023281812324417041450000011437482278994391997_" gradientUnits="userSpaceOnUse" x1="12.4656" y1="898.0259" x2="1827.6345" y2="898.0259">
			<stop  offset="0" style="stop-color:#2B3582"/>
			<stop  offset="1" style="stop-color:#150E42"/>
		</linearGradient>
		<path style="fill:url(#SVGID_00000023281812324417041450000011437482278994391997_);" d="M12.5,468.1v805.1
			c0,66.2,52.8,120.4,119,122.1c294.1,7.6,1322.5,26,1602.4,21.8c48.1-0.7,87.1-39.2,88.5-87.3c5.4-187,14.2-636.8-18.3-845.6
			c-6.8-44-43.9-76.9-88.4-78.3C1469.3,398.1,379,373.1,99.3,379.3C51,380.4,12.5,419.8,12.5,468.1z"/>
		
			<linearGradient id="SVGID_00000056416966761847969980000006140834396114788483_" gradientUnits="userSpaceOnUse" x1="886.4991" y1="1567.6024" x2="1056.5178" y2="-2948.0991">
			<stop  offset="0" style="stop-color:#53D8FF"/>
			<stop  offset="1" style="stop-color:#3840F7"/>
		</linearGradient>
		<path style="fill:url(#SVGID_00000056416966761847969980000006140834396114788483_);" d="M63,464.2v764.9
			c0,38.7,31,70.2,69.7,70.8l1560.9,19.3c38.3,0.6,69.8-30.3,69.9-68.6l2.6-758c0.1-27.4-21.7-49.9-49.1-50.5L118.9,409.6
			C88.2,408.9,63,433.5,63,464.2z"/>
		
			<linearGradient id="SVGID_00000064338348427885952830000001387095556880124085_" gradientUnits="userSpaceOnUse" x1="975.0178" y1="1607.2876" x2="757.9083" y2="2083.9841">
			<stop  offset="0" style="stop-color:#2B3582"/>
			<stop  offset="1" style="stop-color:#150E42"/>
		</linearGradient>
		<path style="fill:url(#SVGID_00000064338348427885952830000001387095556880124085_);" d="M1289.8,1676.6H624.3
			c-18.1,0-31.7-12.9-28.2-26.7l8.5-33.8c2.6-10.2,13.7-17.6,27-18l641.6-20c13.9-0.4,26.1,6.9,29.2,17.5l15.4,53.8
			C1321.8,1663.3,1308.2,1676.6,1289.8,1676.6z"/>
		
			<linearGradient id="SVGID_00000146457938181299058830000018240051561426012055_" gradientUnits="userSpaceOnUse" x1="712.779" y1="3512.9375" x2="1025.6101" y2="-1165.9636">
			<stop  offset="0" style="stop-color:#53D8FF"/>
			<stop  offset="1" style="stop-color:#3840F7"/>
		</linearGradient>
		<path style="fill:url(#SVGID_00000146457938181299058830000018240051561426012055_);" d="M1765.9,558.6l0.2-68.1
			c0.1-27.4-21.7-50-49.2-50.7L117.6,407.4c-30.7-0.7-56.3,23.8-56.3,54.5v96.7H1765.9z"/>
		<path class="st22" d="M574.9,1270.3H118.7c-8.1,0-14.6-6.5-14.6-14.6V608.5c0-8.1,6.5-14.6,14.6-14.6h456.2
			c8.1,0,14.6,6.5,14.6,14.6v647.2C589.5,1263.8,583,1270.3,574.9,1270.3z"/>
		
			<linearGradient id="SVGID_00000178198408659571814540000008177941941424389540_" gradientUnits="userSpaceOnUse" x1="1337.2354" y1="-743.7216" x2="1108.3114" y2="1385.2555">
			<stop  offset="0" style="stop-color:#53D8FF"/>
			<stop  offset="1" style="stop-color:#3840F7"/>
		</linearGradient>
		<path style="fill:url(#SVGID_00000178198408659571814540000008177941941424389540_);" d="M1667.8,974.6h-990
			c-10.2,0-18.5-8.3-18.5-18.5V614.6c0-10.2,8.3-18.5,18.5-18.5h990c10.2,0,18.5,8.3,18.5,18.5V956
			C1686.4,966.3,1678.1,974.6,1667.8,974.6z"/>
		<path class="st24" d="M964.8,1272.6h-290c-8.6,0-15.6-7-15.6-15.6v-235.4c0-8.6,7-15.6,15.6-15.6h290c8.6,0,15.6,7,15.6,15.6V1257
			C980.4,1265.6,973.4,1272.6,964.8,1272.6z"/>
		<path class="st24" d="M1318.7,1272.6h-294.4c-7.4,0-13.4-6-13.4-13.4v-239.8c0-7.4,6-13.4,13.4-13.4h294.4c7.4,0,13.4,6,13.4,13.4
			v239.8C1332.1,1266.6,1326.1,1272.6,1318.7,1272.6z"/>
		<path class="st24" d="M1672.7,1272.6h-293.9c-7.5,0-13.6-6.1-13.6-13.6v-239.3c0-7.5,6.1-13.6,13.6-13.6h293.9
			c7.5,0,13.6,6.1,13.6,13.6v239.3C1686.4,1266.5,1680.3,1272.6,1672.7,1272.6z"/>
		
			<linearGradient id="SVGID_00000054988474853635758780000003846619329391277478_" gradientUnits="userSpaceOnUse" x1="186.4502" y1="405.8525" x2="489.0388" y2="-342.1183">
			<stop  offset="0" style="stop-color:#53D8FF"/>
			<stop  offset="1" style="stop-color:#3840F7"/>
		</linearGradient>
		<circle style="fill:url(#SVGID_00000054988474853635758780000003846619329391277478_);" cx="150.1" cy="495.8" r="19.6"/>
		
			<linearGradient id="SVGID_00000175299004844879436110000004479944559627466393_" gradientUnits="userSpaceOnUse" x1="241.749" y1="428.2234" x2="544.3377" y2="-319.7475">
			<stop  offset="0" style="stop-color:#53D8FF"/>
			<stop  offset="1" style="stop-color:#3840F7"/>
		</linearGradient>
		<circle style="fill:url(#SVGID_00000175299004844879436110000004479944559627466393_);" cx="214.4" cy="495.8" r="19.6"/>
		
			<linearGradient id="SVGID_00000046315760870877408190000010824270689097155461_" gradientUnits="userSpaceOnUse" x1="295.7467" y1="450.0681" x2="598.3354" y2="-297.9029">
			<stop  offset="0" style="stop-color:#53D8FF"/>
			<stop  offset="1" style="stop-color:#3840F7"/>
		</linearGradient>
		<circle style="fill:url(#SVGID_00000046315760870877408190000010824270689097155461_);" cx="277.2" cy="495.8" r="19.6"/>
		<rect x="152.3" y="636.6" class="st28" width="386.9" height="184.7"/>
		<rect x="152.3" y="844.8" class="st28" width="386.9" height="184.7"/>
		<rect x="152.3" y="1053" class="st28" width="386.9" height="184.7"/>
		
			<linearGradient id="SVGID_00000132771046685344565160000010878751049181348518_" gradientUnits="userSpaceOnUse" x1="1200.532" y1="548.311" x2="1411.354" y2="-587.4122">
			<stop  offset="0" style="stop-color:#53D8FF"/>
			<stop  offset="1" style="stop-color:#3840F7"/>
		</linearGradient>
		
			<rect x="659.3" y="655.3" style="fill:url(#SVGID_00000132771046685344565160000010878751049181348518_);" width="1027.1" height="84.6"/>
	</g>
	<g>
		
			<linearGradient id="SVGID_00000069364139445230912360000000651963934925315493_" gradientUnits="userSpaceOnUse" x1="11507.9893" y1="1793.6121" x2="11319.3037" y2="2025.5743" gradientTransform="matrix(0.9922 -0.1247 0.1247 0.9922 -10777.9365 614.9205)">
			<stop  offset="0" style="stop-color:#F9B776"/>
			<stop  offset="1" style="stop-color:#F47960"/>
		</linearGradient>
		<path style="fill:url(#SVGID_00000069364139445230912360000000651963934925315493_);" d="M846,1025.2c-1.2-2.3-4.7-2-5.4,0.6
			c-2.6,9.5-9,25.9-22.3,31.8c-0.7,0.3-1.3,0.6-1.9,0.9c-0.6-1.8-0.6-3.9,0.8-6.1c4.1-6.3-3.3-15-3.3-15s-0.5,7.6-6.3,12.4
			c-5,4.1-7.4,13.3-4,20.9c7.2,28,18,65.1-24.1,92.2c-42.1,27.1-101.4-51.1-101.4-51.1l29.4,93.3c0,0,45.4,33.5,98.3-13.6
			c52.8-47.1,17.8-115.7,17.8-115.7S863.9,1059.4,846,1025.2z"/>
		
			<linearGradient id="SVGID_00000165221613194290111730000001076846753668842933_" gradientUnits="userSpaceOnUse" x1="-12656.7861" y1="3644.9346" x2="-12780.5166" y2="3791.9551" gradientTransform="matrix(-0.9602 0.2794 0.2794 0.9602 -12746.8984 972.5874)">
			<stop  offset="0" style="stop-color:#2B3582"/>
			<stop  offset="1" style="stop-color:#150E42"/>
		</linearGradient>
		<path style="fill:url(#SVGID_00000165221613194290111730000001076846753668842933_);" d="M670.7,974.6c0,0,12.2-54.7-50.5-40.2
			c0,0-30.4-5-32,23.7c0,0-19.6,12.9-5.3,37.8c0,0-58.3-22.5-83.7,28.6c-25.4,51.1-2.1,79.2,22.4,86.5c0,0-19.8,10-10.4,32.4
			c9.4,22.5,56.9,38.3,85,11c0,0,79.9,10.6,78.3-45.9c0,0,37.2-24-1.9-70.6C633.7,991.3,670.7,974.6,670.7,974.6z"/>
		
			<linearGradient id="SVGID_00000040560276593118008740000007085600505395077539_" gradientUnits="userSpaceOnUse" x1="-4781.4326" y1="1142.9054" x2="-4671.6675" y2="1472.202" gradientTransform="matrix(-1 0 0 1 -4119.0269 0)">
			<stop  offset="0" style="stop-color:#FDF53F"/>
			<stop  offset="0.6645" style="stop-color:#E57A58"/>
			<stop  offset="1" style="stop-color:#D93C65"/>
		</linearGradient>
		<path style="fill:url(#SVGID_00000040560276593118008740000007085600505395077539_);" d="M674.1,1101.5
			c-12.6-3.8-49.3-10.7-84.1,21.4c-5.9,5.5-8.3,13.8-6.2,21.5c9.4,34.5,34.1,136.4,12.4,180.5c0,0,38.2,42.1,79.9,8.2
			c0,0,18.7-81.5,43.2-117.3c16.9-24.7-27-92.7-38.1-109.2C679.5,1104.2,677,1102.3,674.1,1101.5z"/>
		
			<linearGradient id="SVGID_00000074402260084351205240000010702427731367665822_" gradientUnits="userSpaceOnUse" x1="-12835.9541" y1="3904.1428" x2="-12825.874" y2="3832.5708" gradientTransform="matrix(-0.9602 0.2794 0.2794 0.9602 -12746.8984 972.5874)">
			<stop  offset="0" style="stop-color:#F9B776"/>
			<stop  offset="1" style="stop-color:#F47960"/>
		</linearGradient>
		<path style="fill:url(#SVGID_00000074402260084351205240000010702427731367665822_);" d="M639.4,1032.9c0,0-18.6,52.7-20,75.9
			c0,0,20.6,9.4,40-6.4c0,0,2-52.6,5-62L639.4,1032.9z"/>
		
			<linearGradient id="SVGID_00000072244006463741105370000002381234227982187956_" gradientUnits="userSpaceOnUse" x1="-12882.1699" y1="3750.7847" x2="-12787.9141" y2="3859.1531" gradientTransform="matrix(-0.9602 0.2794 0.2794 0.9602 -12746.8984 972.5874)">
			<stop  offset="0" style="stop-color:#F9B776"/>
			<stop  offset="1" style="stop-color:#F47960"/>
		</linearGradient>
		<path style="fill:url(#SVGID_00000072244006463741105370000002381234227982187956_);" d="M665.2,961.1c0,0,48.7,68.2,19.6,88
			c-29.1,19.8-63.8-28.6-63.8-28.6s-11.3-37.3,0.5-50C633.4,957.8,665.2,961.1,665.2,961.1z"/>
		
			<linearGradient id="SVGID_00000122697415684861301930000008188192108258550947_" gradientUnits="userSpaceOnUse" x1="-12716.0469" y1="3595.0642" x2="-12839.7793" y2="3742.0874" gradientTransform="matrix(-0.9602 0.2794 0.2794 0.9602 -12746.8984 972.5874)">
			<stop  offset="0" style="stop-color:#2B3582"/>
			<stop  offset="1" style="stop-color:#150E42"/>
		</linearGradient>
		<path style="fill:url(#SVGID_00000122697415684861301930000008188192108258550947_);" d="M642.7,944.8c0,0,22.4,5.3,25.5,15.4
			c3.1,10.1-31.7,19.5-41.5,20l-7.9,40.9c0,0-23.3-38.4-14.1-60.6C614,938.2,642.7,944.8,642.7,944.8z"/>
		
			<linearGradient id="SVGID_00000070802831039091634920000005967559521604056754_" gradientUnits="userSpaceOnUse" x1="-12858.6211" y1="3730.3" x2="-12764.3662" y2="3838.6685" gradientTransform="matrix(-0.9602 0.2794 0.2794 0.9602 -12746.8984 972.5874)">
			<stop  offset="0" style="stop-color:#F9B776"/>
			<stop  offset="1" style="stop-color:#F47960"/>
		</linearGradient>
		<path style="fill:url(#SVGID_00000070802831039091634920000005967559521604056754_);" d="M630.5,1015.4c0,0-19-22-26.5-7.6
			c-7.5,14.3,17.1,25.1,25.6,18L630.5,1015.4z"/>
		
			<linearGradient id="SVGID_00000047025534176901713300000005502838279463600825_" gradientUnits="userSpaceOnUse" x1="11100.4248" y1="2011.3745" x2="11325.2969" y2="1614.4268" gradientTransform="matrix(1 -9.500000e-03 9.500000e-03 1 -10617.0586 49.8099)">
			<stop  offset="0" style="stop-color:#F9B776"/>
			<stop  offset="1" style="stop-color:#F47960"/>
		</linearGradient>
		<path style="fill:url(#SVGID_00000047025534176901713300000005502838279463600825_);" d="M724.7,1504.2c-0.1,3.7,6.4,33,9.9,48.7
			c1.4,6.3,0.4,12.9-2.8,18.5l-122.4,206c-1.5,2.5-2.6,5.2-3.2,8c-2.2,9.7-6.9,33.4-4.5,54.9l6.3,13.2l-27.4-6.2l-6-73.5l7.8-4.7
			c6.7-4.1,11.9-10.2,14.9-17.4c11.1-26.9,38.6-95.3,45.6-128.7c8.1-37.9,50.1-68.7,50.1-68.7l-7.4-17.5L724.7,1504.2z"/>
		
			<linearGradient id="SVGID_00000121273564526161203810000002713877087831148460_" gradientUnits="userSpaceOnUse" x1="11149.4453" y1="1871.0308" x2="11215.1758" y2="1871.0308" gradientTransform="matrix(1 -9.500000e-03 9.500000e-03 1 -10617.0586 49.8099)">
			<stop  offset="0" style="stop-color:#2B3582"/>
			<stop  offset="1" style="stop-color:#150E42"/>
		</linearGradient>
		<path style="fill:url(#SVGID_00000121273564526161203810000002713877087831148460_);" d="M550.2,1821.9c0,0,14.8-23.4,16.5-32.6
			c1.7-9.1,6.6-25.2,15.7-20.4c0,0,4.3,44.3,2.8,61.7c-1.5,17.3,19.6,16.8,19.6,16.8s5.8,0.8,10.1,5.1c2.9,2.9,0.8,8-3.3,8.3
			c-6.9,0.4-17.8,0.6-29.3-1.7c-4-0.8-7-4.2-7.2-8.3l-3-51l-18.7,23.6L550.2,1821.9z"/>
		
			<linearGradient id="SVGID_00000158726358430456373770000007240244262829133986_" gradientUnits="userSpaceOnUse" x1="11355.2607" y1="1717.7224" x2="11018.9551" y2="1825.2622" gradientTransform="matrix(1 -9.500000e-03 9.500000e-03 1 -10617.0586 49.8099)">
			<stop  offset="0" style="stop-color:#F9B776"/>
			<stop  offset="1" style="stop-color:#F47960"/>
		</linearGradient>
		<path style="fill:url(#SVGID_00000158726358430456373770000007240244262829133986_);" d="M651.6,1537c0,0-4.3,184.3-4.9,210.5
			c-0.6,26.2,4.1,84.2,30.4,101.5l-11.4,8.5c0,0-14.3-12.1-28.2-35.5c-15.7-26.2-20.4-31-20.4-31l5.2-10.6c2.3-4.7,2.9-9.9,1.9-15
			c-5.7-27.4-24.6-118.7-29.7-138.4c-6.1-23.2-6.5-54.2,14.7-80.1C630.2,1520.8,651.6,1537,651.6,1537z"/>
		
			<linearGradient id="SVGID_00000014618596247516216150000015515912662706217386_" gradientUnits="userSpaceOnUse" x1="11210.3867" y1="1882.9026" x2="11288.7441" y2="1882.9026" gradientTransform="matrix(1 -9.500000e-03 9.500000e-03 1 -10617.0586 49.8099)">
			<stop  offset="0" style="stop-color:#2B3582"/>
			<stop  offset="1" style="stop-color:#150E42"/>
		</linearGradient>
		<path style="fill:url(#SVGID_00000014618596247516216150000015515912662706217386_);" d="M627.3,1865.7c-0.8,0-1.5-0.6-1.6-1.4
			c-0.9-6.1-4.5-30.8-7.5-37.2c-3.4-7.3-14.5-38,0-40.7c0,0,36.2,52.8,43.1,59.9c6.9,7.1,15.7,2.5,15.7,2.5s6.8,2,11.9,8.5
			c2.4,3.1,0.2,7.7-3.8,7.7l-24.4,0.2c-7.1,0.1-13.4-4.2-16.1-10.8c-4.3-10.7-11.7-26.4-20.2-33.4l4.5,42.7
			C629,1864.9,628.3,1865.7,627.3,1865.7z"/>
		
			<linearGradient id="SVGID_00000178205979900424006260000008629139130230153621_" gradientUnits="userSpaceOnUse" x1="-4864.3804" y1="1693.6519" x2="-4577.4072" y2="1022.5051" gradientTransform="matrix(-1 0 0 1 -4119.0269 0)">
			<stop  offset="0" style="stop-color:#A737D5"/>
			<stop  offset="1" style="stop-color:#EF497A"/>
		</linearGradient>
		<path style="fill:url(#SVGID_00000178205979900424006260000008629139130230153621_);" d="M681.8,1313.2c0,0-5.5,17.5,2.9,46.3
			l52.3,182.6c0.8,2.9-0.7,5.9-3.5,6.9c-15.6,5.6-67.1,21.5-137.3,16.6c-3.5-0.2-6.5-2.7-7.3-6.2c-4.6-20.8-20.4-91.9-23.7-106.5
			c-12.4-55.6-26.2-115.6,34.6-151.9C628,1313.2,654.1,1320.2,681.8,1313.2z"/>
		
			<linearGradient id="SVGID_00000182511172312347756020000004753397860916313774_" gradientUnits="userSpaceOnUse" x1="11122.9492" y1="2128.7419" x2="11495.9863" y2="1702.0425" gradientTransform="matrix(0.9922 -0.1247 0.1247 0.9922 -10777.9365 614.9205)">
			<stop  offset="0" style="stop-color:#F9B776"/>
			<stop  offset="1" style="stop-color:#F47960"/>
		</linearGradient>
		<path style="fill:url(#SVGID_00000182511172312347756020000004753397860916313774_);" d="M585,1129.8c0,0-59.5,49.5-74.3,117
			c-14.8,67.6,87,74.8,87,74.8s13.8-15.4,30.2-9.9c16.4,5.5,1.3-26.9-17.9-26.8c-19.2,0.1-10.3,15.3-37.4,3
			c-26.4-12-42.8-49,24.7-105.1c3.9-3.3,7-7.4,8.9-12.1C619.2,1137.5,608.8,1115.9,585,1129.8z"/>
	</g>
	<g>
		
			<linearGradient id="SVGID_00000160184625884651757240000013275739787588966272_" gradientUnits="userSpaceOnUse" x1="-489.9362" y1="1814.0881" x2="-812.3688" y2="2164.8047" gradientTransform="matrix(-1 9.500000e-03 9.500000e-03 1 863.2602 -56.34)">
			<stop  offset="0" style="stop-color:#2B3582"/>
			<stop  offset="1" style="stop-color:#150E42"/>
		</linearGradient>
		<path style="fill:url(#SVGID_00000160184625884651757240000013275739787588966272_);" d="M1472.6,1778.2c0,0,3.5,18.9,5.3,37.6
			c0.7,7.3-4.9,13.7-12.2,14.1c-24.9,1.3-78.2,3.8-97.3,3.1c-2.9-0.1-4.8-3-3.7-5.7l0,0c0.9-2.2,2.6-4.1,4.8-5.1l87.7-41.3
			L1472.6,1778.2z"/>
		
			<linearGradient id="SVGID_00000095320078950742144470000014952450215162899592_" gradientUnits="userSpaceOnUse" x1="-594.593" y1="1840.1331" x2="-565.9528" y2="1840.1331" gradientTransform="matrix(-1 9.500000e-03 9.500000e-03 1 863.2602 -56.34)">
			<stop  offset="0" style="stop-color:#F9B776"/>
			<stop  offset="1" style="stop-color:#F47960"/>
		</linearGradient>
		<path style="fill:url(#SVGID_00000095320078950742144470000014952450215162899592_);" d="M1475.2,1767.1l-2.5,22.6
			c0,0-15.4,7.3-26-0.7l6.1-25.3L1475.2,1767.1z"/>
		
			<linearGradient id="SVGID_00000027604086749752147000000000044573117799074178_" gradientUnits="userSpaceOnUse" x1="-464.5305" y1="1417.4387" x2="-738.9083" y2="1789.3225" gradientTransform="matrix(-1 9.500000e-03 9.500000e-03 1 863.2602 -56.34)">
			<stop  offset="0" style="stop-color:#CB236D"/>
			<stop  offset="1" style="stop-color:#4C246D"/>
		</linearGradient>
		<path style="fill:url(#SVGID_00000027604086749752147000000000044573117799074178_);" d="M1469.2,1342c1.2,5.9,9,294.6-20.6,424.3
			c-0.5,2.1,0.6,4.3,2.6,5.1c4.8,1.9,14.1,4.6,25.2,4.9c3.4,0.1,6.5-2.2,7.5-5.5c8.5-30.1,49.4-180.9,53.5-324.7
			c4.6-160.6-0.1-5.5-0.1-5.5l-4.6-99.2L1469.2,1342z"/>
		
			<linearGradient id="SVGID_00000031177507068400045100000007495181075085511322_" gradientUnits="userSpaceOnUse" x1="-562.2687" y1="1747.5775" x2="-884.7145" y2="2098.3083" gradientTransform="matrix(-1 9.500000e-03 9.500000e-03 1 863.2602 -56.34)">
			<stop  offset="0" style="stop-color:#2B3582"/>
			<stop  offset="1" style="stop-color:#150E42"/>
		</linearGradient>
		<path style="fill:url(#SVGID_00000031177507068400045100000007495181075085511322_);" d="M1574,1787.1c0,0,5.4,9.5,10.8,34.8
			c1,4.6-2.2,9-6.8,9.5c-8.2,0.9-20.9,2-31,2.1c-4.7,0-8.4-4-7.8-8.7c1-9.3,4.4-24.5,15.1-36.4L1574,1787.1z"/>
		
			<linearGradient id="SVGID_00000147928071999308381950000010052989618688399234_" gradientUnits="userSpaceOnUse" x1="-697.815" y1="1838.6603" x2="-673.0875" y2="1838.6603" gradientTransform="matrix(-1 9.500000e-03 9.500000e-03 1 863.2602 -56.34)">
			<stop  offset="0" style="stop-color:#F9B776"/>
			<stop  offset="1" style="stop-color:#F47960"/>
		</linearGradient>
		<path style="fill:url(#SVGID_00000147928071999308381950000010052989618688399234_);" d="M1578.4,1758l-5.9,34.3
			c0,0-6.2,4.7-18.4,1.4l2.6-36.8L1578.4,1758z"/>
		
			<linearGradient id="SVGID_00000053539194656727736020000016492576058939078318_" gradientUnits="userSpaceOnUse" x1="-513.4319" y1="1381.3595" x2="-787.8068" y2="1753.2394" gradientTransform="matrix(-1 9.500000e-03 9.500000e-03 1 863.2602 -56.34)">
			<stop  offset="0" style="stop-color:#CB236D"/>
			<stop  offset="1" style="stop-color:#4C246D"/>
		</linearGradient>
		<path style="fill:url(#SVGID_00000053539194656727736020000016492576058939078318_);" d="M1591.4,1349.7
			c26.7,152.1-1.9,376.6-11.8,420.6c-0.6,2.7-2.8,4.8-5.5,5.2c-4.6,0.8-12.2,1.5-19.8-0.6c-2.6-0.7-4.4-3-4.6-5.7
			c-1.7-35.5-1.3-253.3-25.6-339.1c-1.2-4.4-3.9-8.1-7.6-10.7l-46-32l-4-52.4L1591.4,1349.7z"/>
		<g>
			
				<linearGradient id="SVGID_00000083071789061226452350000010775562712324669853_" gradientUnits="userSpaceOnUse" x1="-5611.8008" y1="1168.2972" x2="-5875.6304" y2="1543.2128" gradientTransform="matrix(-1 0 0 1 -4119.0269 0)">
				<stop  offset="0" style="stop-color:#FDF53F"/>
				<stop  offset="0.6645" style="stop-color:#E57A58"/>
				<stop  offset="1" style="stop-color:#D93C65"/>
			</linearGradient>
			<path style="fill:url(#SVGID_00000083071789061226452350000010775562712324669853_);" d="M1427.8,1062.6
				c75.6-2,159.3,18.3,159.3,18.3c23.8,131.4,6.6,283.3,6.6,283.3c-58.4,15.9-124.7-8.2-124.7-8.2c-10.3-54.9-57.2-209.3-57.2-209.3
				c-37-4.2-67.6-14.6-92.8-28.5c18.9-22.4,27.7-50.7,31.4-67.4C1377.4,1059,1404.5,1063.2,1427.8,1062.6z"/>
			
				<linearGradient id="SVGID_00000037684170498574907340000011864888558633307030_" gradientUnits="userSpaceOnUse" x1="-476.7054" y1="1092.9279" x2="-330.3792" y2="1092.9279" gradientTransform="matrix(-1 9.500000e-03 9.500000e-03 1 863.2602 -56.34)">
				<stop  offset="0" style="stop-color:#F9B776"/>
				<stop  offset="1" style="stop-color:#F47960"/>
			</linearGradient>
			<path style="fill:url(#SVGID_00000037684170498574907340000011864888558633307030_);" d="M1203.3,953.3c7.3-9,16.8-4.9,16.8-4.9
				c11.6,46.9,70.3,84.5,130.5,102.6c-3.8,16.7-12.5,45-31.4,67.4C1219,1063.3,1203.3,953.3,1203.3,953.3z"/>
		</g>
		<g>
			
				<linearGradient id="SVGID_00000127748046477782955260000017282939370075504056_" gradientUnits="userSpaceOnUse" x1="9307.6572" y1="1067.4713" x2="9405.8438" y2="1290.8673" gradientTransform="matrix(1 -9.500000e-03 9.500000e-03 1 -8081.4141 29.567)">
				<stop  offset="0" style="stop-color:#F9B776"/>
				<stop  offset="1" style="stop-color:#F47960"/>
			</linearGradient>
			<path style="fill:url(#SVGID_00000127748046477782955260000017282939370075504056_);" d="M1205.1,955.5c-0.8,2.5,8.3,6.2,13.5-4
				c0.1-4.8,2.9-25.6,0-29.6c-15.6-20.9-45.8-46.9-45.8-46.9c-5,5-0.8,9.9-0.8,9.9l14.6,15c-3,5.5-6.6,10.2-8.3,16.8
				c-1.3,5-0.4,10.4,2.2,14.9c2.6,4.6,6.1,10.5,9.4,15.1C1196.2,955.5,1205.1,955.5,1205.1,955.5z"/>
			
				<linearGradient id="SVGID_00000157298999177065738470000004517136457769347712_" gradientUnits="userSpaceOnUse" x1="-331.0806" y1="994.0048" x2="-290.111" y2="931.0139" gradientTransform="matrix(-1 9.500000e-03 9.500000e-03 1 863.2602 -56.34)">
				<stop  offset="0" style="stop-color:#F9B776"/>
				<stop  offset="1" style="stop-color:#F47960"/>
			</linearGradient>
			<path style="fill:url(#SVGID_00000157298999177065738470000004517136457769347712_);" d="M1193.1,909.6l13.3,11.1l4.3,11.1
				L1199,945c0,0-4.2-22.1-7.2-26.9C1188.8,913.4,1190.3,911,1193.1,909.6z"/>
		</g>
		
			<linearGradient id="SVGID_00000085937155952812580510000005033217793358571927_" gradientUnits="userSpaceOnUse" x1="-5695.6704" y1="1109.2778" x2="-5959.5005" y2="1484.1941" gradientTransform="matrix(-1 0 0 1 -4119.0269 0)">
			<stop  offset="0" style="stop-color:#FDF53F"/>
			<stop  offset="0.6645" style="stop-color:#E57A58"/>
			<stop  offset="1" style="stop-color:#D93C65"/>
		</linearGradient>
		<path style="fill:url(#SVGID_00000085937155952812580510000005033217793358571927_);" d="M1558.8,1154.4l28.3-73.5
			c0,0,71.1,47.3,83.3,108.1c-13.3,1.1-37.6,4.8-61.3,17.1C1603.7,1177.4,1558.8,1154.4,1558.8,1154.4z"/>
		
			<linearGradient id="SVGID_00000165230561995662695010000012632602494556262550_" gradientUnits="userSpaceOnUse" x1="-796.8964" y1="1300.1752" x2="-611.7252" y2="1300.1752" gradientTransform="matrix(-1 9.500000e-03 9.500000e-03 1 863.2602 -56.34)">
			<stop  offset="0" style="stop-color:#F9B776"/>
			<stop  offset="1" style="stop-color:#F47960"/>
		</linearGradient>
		<path style="fill:url(#SVGID_00000165230561995662695010000012632602494556262550_);" d="M1497.7,1224c0,0,79.8,44.1,106.2,5.5
			c5.5-8,6.7-15.9,5.3-23.4c23.7-12.2,47.9-15.9,61.3-17.1c3.7,18.3,2,37.9-8.6,57.7c-46.1,86.2-174.5-3.1-174.5-3.1L1497.7,1224z"
			/>
		
			<linearGradient id="SVGID_00000044175291178496676520000016317632498620096671_" gradientUnits="userSpaceOnUse" x1="-654.704" y1="1102.2194" x2="-581.4904" y2="1102.2194" gradientTransform="matrix(-1 9.500000e-03 9.500000e-03 1 863.2602 -56.34)">
			<stop  offset="0" style="stop-color:#F9B776"/>
			<stop  offset="1" style="stop-color:#F47960"/>
		</linearGradient>
		<path style="fill:url(#SVGID_00000044175291178496676520000016317632498620096671_);" d="M1503.8,1000.4l24.7,69.4
			c0.4,1.1-0.1,2.4-1.1,3c-6.5,3.7-30.1,14.4-58.7-3.4c-3-1.9-5-4.9-5.5-8.4l-8.4-60.2L1503.8,1000.4z"/>
		<g>
			
				<linearGradient id="SVGID_00000165938424403090128410000008537010867111195044_" gradientUnits="userSpaceOnUse" x1="-6258.1055" y1="-2124.9619" x2="-6285.4644" y2="-2215.198" gradientTransform="matrix(-0.7523 -0.6588 -0.6588 0.7523 -4670.5322 -1530.2853)">
				<stop  offset="0" style="stop-color:#F9B776"/>
				<stop  offset="1" style="stop-color:#F47960"/>
			</linearGradient>
			<path style="fill:url(#SVGID_00000165938424403090128410000008537010867111195044_);" d="M1450.9,936.4c0,0-26,50-22.4,70.1
				c3.6,20.1,36.3,18.3,64.8,1.7l19.5-53.9L1450.9,936.4z"/>
			
				<linearGradient id="SVGID_00000024686832391134613100000016035036783237447843_" gradientUnits="userSpaceOnUse" x1="-6282.7866" y1="-2282.1848" x2="-6259.9014" y2="-2151.6543" gradientTransform="matrix(-0.7523 -0.6588 -0.6588 0.7523 -4670.5322 -1530.2853)">
				<stop  offset="0" style="stop-color:#2B3582"/>
				<stop  offset="1" style="stop-color:#150E42"/>
			</linearGradient>
			<path style="fill:url(#SVGID_00000024686832391134613100000016035036783237447843_);" d="M1491.7,981.9c-1.2-0.5-1.6-1.9-0.9-3
				c2.1-3.3,6-9.9,7.2-15.7c0,0,4.7-3.1-12.2-7c-16.9-3.9-42.1-9.9-47.5-24.2c-5.3-13.9,7.9-49.2,29.8-21.4c0.8,1.1,2.4,1.1,3.2,0
				c3.5-4.6,12.7-14.3,25.7-8.6c12.1,5.3,13.6,14.1,13.5,18.6c0,1.3,1.1,2.3,2.4,2.1c6.1-1.2,20.8-2.4,27.7,12.6
				c5.8,12.3,2.2,19.4-1.1,22.8c-1.1,1.1-0.6,2.9,0.9,3.4c4,1.2,9.2,4.5,8.8,14c-0.6,13-15.1,12-19.3,11.5c-0.7-0.1-1.4,0.1-1.8,0.7
				c-3.5,4-19.3,20.8-36.6,23c-1.5,0.2-2.7-1.3-2.2-2.7l7.3-21.8c0.3-1-0.2-2.1-1.1-2.5L1491.7,981.9z"/>
			
				<linearGradient id="SVGID_00000156552748886051660820000004111344608893007019_" gradientUnits="userSpaceOnUse" x1="-6286.0723" y1="-2125.3831" x2="-6310.688" y2="-2206.5701" gradientTransform="matrix(-0.7523 -0.6588 -0.6588 0.7523 -4670.5322 -1530.2853)">
				<stop  offset="0" style="stop-color:#F9B776"/>
				<stop  offset="1" style="stop-color:#F47960"/>
			</linearGradient>
			<path style="fill:url(#SVGID_00000156552748886051660820000004111344608893007019_);" d="M1488.8,985c0,0,18.7-13.1,20.2-2.2
				c1.5,10.9-16.8,15.9-25.9,11.9L1488.8,985z"/>
		</g>
		<g>
			<g>
				
					<linearGradient id="SVGID_00000019678106332287232320000005225422219818512314_" gradientUnits="userSpaceOnUse" x1="-851.049" y1="1118.6064" x2="-748.8718" y2="1544.3457" gradientTransform="matrix(-1 0 0 1 586.6353 0)">
					<stop  offset="0" style="stop-color:#2B3582"/>
					<stop  offset="1" style="stop-color:#150E42"/>
				</linearGradient>
				<path style="fill:url(#SVGID_00000019678106332287232320000005225422219818512314_);" d="M1514,1293.6l-43.5-151.7
					c-0.5-1.7-2-3-3.7-3.2c-7.9-0.9-30.7-3.5-57-5.7c-31.7-2.7-68.6-4.9-90.6-3c-3.1,0.3-5,3.6-3.6,6.4
					c12.5,25.3,64,128.4,89.8,162.1c0.9,1.1,2.2,1.8,3.6,1.8l100.8-0.9C1512.7,1299.3,1514.8,1296.4,1514,1293.6z"/>
				
					<linearGradient id="SVGID_00000170986242041579143710000007002506784774908316_" gradientUnits="userSpaceOnUse" x1="-921.0638" y1="1231.2371" x2="-863.1725" y2="1231.2371" gradientTransform="matrix(-1 0 0 1 586.6353 0)">
					<stop  offset="0" style="stop-color:#F9B776"/>
					<stop  offset="1" style="stop-color:#F47960"/>
				</linearGradient>
				<path style="fill:url(#SVGID_00000170986242041579143710000007002506784774908316_);" d="M1503.5,1257c0,0,6.1-24.9,3.6-33.7
					c-2.4-8.8-7.2-20.2-22.9-17.7c-15.8,2.5-34.4,9.2-34.4,9.2s0.9,11.5,12.9,7.8l-7.4,5.8c0,0,1.1,9.2,11.2,4.3l-6.9,7.6
					c0,0,4.3,7.6,11.8,2.7C1478.8,1238.1,1482.4,1260,1503.5,1257z"/>
			</g>
			
				<linearGradient id="SVGID_00000011714369703501264940000004972332902095644052_" gradientUnits="userSpaceOnUse" x1="11583.1406" y1="1164.0148" x2="11598.4111" y2="1227.6409" gradientTransform="matrix(1 0 0 1 -10186.6357 0)">
				<stop  offset="0" style="stop-color:#53D8FF"/>
				<stop  offset="1" style="stop-color:#3840F7"/>
			</linearGradient>
			<path style="fill:url(#SVGID_00000011714369703501264940000004972332902095644052_);" d="M1412.7,1178.3c0,7-5.7,12.8-12.8,12.8
				c-7,0-12.8-5.7-12.8-12.8c0-7,5.7-12.8,12.8-12.8C1407,1165.5,1412.7,1171.2,1412.7,1178.3z"/>
			<path class="st62" d="M1465.6,1186.7l3.3-1l-8.8-30c-1.4-4.9-5.4-8.6-10.3-9.6c-28-5.9-101.9-7-105-7.1l-0.1,3.4
				c0.8,0,76.7,1.2,104.4,7c3.7,0.8,6.6,3.5,7.7,7.2L1465.6,1186.7z"/>
		</g>
	</g>
	<g>
		
			<linearGradient id="SVGID_00000011740216069837759510000012464548609239403669_" gradientUnits="userSpaceOnUse" x1="1244.4534" y1="1199.6571" x2="1183.2612" y2="1291.4454" gradientTransform="matrix(1 0 0 1 -772.8065 0)">
			<stop  offset="0" style="stop-color:#F9B776"/>
			<stop  offset="1" style="stop-color:#F47960"/>
		</linearGradient>
		<path style="fill:url(#SVGID_00000011740216069837759510000012464548609239403669_);" d="M386.2,1347.3l67.6,0.8l-23.7-22.3
			c-5.9-5.5-14.9-6.4-21.6-2c-4,2.6-8.3,6.1-12,10.7c0,0-42.2-15.4-62.6-49.9c-6.4,9.5-13.8,22.3-20.3,38.3
			C332,1333.7,355.7,1342.2,386.2,1347.3z"/>
		
			<linearGradient id="SVGID_00000039837439701598950340000016993024069818588293_" gradientUnits="userSpaceOnUse" x1="1144.8508" y1="1834.4117" x2="1249.9025" y2="1834.4117" gradientTransform="matrix(1 0 0 1 -772.8065 0)">
			<stop  offset="0" style="stop-color:#53D8FF"/>
			<stop  offset="1" style="stop-color:#3840F7"/>
		</linearGradient>
		<path style="fill:url(#SVGID_00000039837439701598950340000016993024069818588293_);" d="M474.1,1829.3c-18,1.6-49.2,4.1-73.9,5.2
			c-14.8,0.7-23.3-0.8-28.2-2.8c0,0.6,0,1.1,0,1.6c0.1,2.6,2.2,4.7,4.8,4.8c46.5,2.6,83.5,0.9,96.7,0.1c2.7-0.2,4.3-3.1,3-5.4
			C475.9,1831.6,475,1830.5,474.1,1829.3z"/>
		
			<linearGradient id="SVGID_00000131338717212918807330000002457946680352961972_" gradientUnits="userSpaceOnUse" x1="1249.5531" y1="1658.6614" x2="1225.6364" y2="1732.9294" gradientTransform="matrix(1 0 0 1 -772.8065 0)">
			<stop  offset="0" style="stop-color:#CB236D"/>
			<stop  offset="1" style="stop-color:#4C246D"/>
		</linearGradient>
		<path style="fill:url(#SVGID_00000131338717212918807330000002457946680352961972_);" d="M400.3,1834.5
			c24.6-1.1,55.9-3.6,73.9-5.2c-17.7-21.7-73.9-36.3-73.9-36.3h-15.9c-10.9,15.7-12.5,30.7-12.4,38.7
			C377,1833.7,385.5,1835.1,400.3,1834.5z"/>
		
			<linearGradient id="SVGID_00000028313599661002596610000011889014581189101952_" gradientUnits="userSpaceOnUse" x1="1154.5497" y1="1785.0781" x2="1184.1405" y2="1785.0781" gradientTransform="matrix(1 0 0 1 -772.8065 0)">
			<stop  offset="0" style="stop-color:#F9B776"/>
			<stop  offset="1" style="stop-color:#F47960"/>
		</linearGradient>
		<path style="fill:url(#SVGID_00000028313599661002596610000011889014581189101952_);" d="M381.7,1767.1l1.5,29.4
			c0.2,3.2,2.5,5.9,5.7,6.3c3.2,0.5,7.4,0.5,11.9-1c2.8-0.9,4.8-3.3,5.3-6.1l5.1-28.6H381.7z"/>
		<g>
			
				<linearGradient id="SVGID_00000109734129434276455360000010840367118205476487_" gradientUnits="userSpaceOnUse" x1="957.3474" y1="1852.0992" x2="997.6051" y2="1852.0992" gradientTransform="matrix(1 0 0 1 -772.8065 0)">
				<stop  offset="0" style="stop-color:#53D8FF"/>
				<stop  offset="1" style="stop-color:#3840F7"/>
			</linearGradient>
			<path style="fill:url(#SVGID_00000109734129434276455360000010840367118205476487_);" d="M197.6,1854.6c-7.8-1.3-11.3-6-12.8-11
				c0,0,0,0.1,0,0.1c-1.1,5.3,1.5,10.8,6.8,13.5c6.4,3.2,13.5,3.7,18.9,3.4c5.9-0.3,11.2-3.1,14.2-7.6l0-0.1
				C218.9,1856.3,210.7,1856.7,197.6,1854.6z"/>
			
				<linearGradient id="SVGID_00000160148588744380596850000011394896969077856406_" gradientUnits="userSpaceOnUse" x1="1059.3074" y1="1597.3962" x2="1035.3906" y2="1671.6638" gradientTransform="matrix(1 0 0 1 -772.8065 0)">
				<stop  offset="0" style="stop-color:#CB236D"/>
				<stop  offset="1" style="stop-color:#4C246D"/>
			</linearGradient>
			<path style="fill:url(#SVGID_00000160148588744380596850000011394896969077856406_);" d="M234.4,1776.1h-13.1
				c-19.9-0.5-32.4,48.5-36.5,67.4c1.5,5,5,9.8,12.8,11c13,2.1,21.3,1.7,27.1-1.7c10.8-16.5,16.1-40.6,18.7-54.7
				C246.4,1782.1,234.4,1776.1,234.4,1776.1z"/>
		</g>
		
			<linearGradient id="SVGID_00000043457947881540516240000009210872386440384128_" gradientUnits="userSpaceOnUse" x1="988.3544" y1="1769.6477" x2="1023.7186" y2="1769.6477" gradientTransform="matrix(1 0 0 1 -772.8065 0)">
			<stop  offset="0" style="stop-color:#F9B776"/>
			<stop  offset="1" style="stop-color:#F47960"/>
		</linearGradient>
		<path style="fill:url(#SVGID_00000043457947881540516240000009210872386440384128_);" d="M223,1748.9l-7.3,28.9
			c-0.9,3.5,0.8,7.2,4.1,8.9c4.1,2.1,9.8,4.3,15,3.6c2.5-0.3,4.5-2,5.3-4.4l10.7-30.4L223,1748.9z"/>
		
			<linearGradient id="SVGID_00000118364663914095535840000011460377487891411107_" gradientUnits="userSpaceOnUse" x1="265.534" y1="1952.0994" x2="441.4199" y2="1304.0969">
			<stop  offset="0" style="stop-color:#2B3582"/>
			<stop  offset="1" style="stop-color:#150E42"/>
		</linearGradient>
		<path style="fill:url(#SVGID_00000118364663914095535840000011460377487891411107_);" d="M478.6,1368.4c0,0-64.9,405.7-63.8,408
			c0,0-17.9,8.1-37.5,1c0,0,5.9-216.9,19.6-300.1c0,0-110.8,193.9-146,290.5c0,0-18.3-2.2-33.5-12.2c0,0,119.3-348.9,151.1-395.4
			L478.6,1368.4z"/>
		
			<linearGradient id="SVGID_00000165922204921487895290000006320240072681098144_" gradientUnits="userSpaceOnUse" x1="-4162.6108" y1="725.6893" x2="-4417.1846" y2="1216.3208" gradientTransform="matrix(-1 0 0 1 -4119.0269 0)">
			<stop  offset="0" style="stop-color:#53D8FF"/>
			<stop  offset="1" style="stop-color:#3840F7"/>
		</linearGradient>
		<path style="fill:url(#SVGID_00000165922204921487895290000006320240072681098144_);" d="M399.5,1476.5c-0.6,0-1.1-0.2-1.7-0.5
			c-1.5-0.9-1.9-2.9-1-4.3l24.3-38.7c0.5-0.7,1.2-1.2,2-1.4l17.9-3.6c1.7-0.4,3.4,0.8,3.7,2.5c0.3,1.7-0.8,3.4-2.5,3.7l-16.5,3.3
			l-23.5,37.6C401.5,1475.9,400.5,1476.5,399.5,1476.5z"/>
		
			<linearGradient id="SVGID_00000011716475020108376810000004049406718427142054_" gradientUnits="userSpaceOnUse" x1="1251.6674" y1="1134.9209" x2="904.2933" y2="1546.6235" gradientTransform="matrix(1 0 0 1 -772.8065 0)">
			<stop  offset="0" style="stop-color:#CB236D"/>
			<stop  offset="1" style="stop-color:#4C246D"/>
		</linearGradient>
		<path style="fill:url(#SVGID_00000011716475020108376810000004049406718427142054_);" d="M485.2,1106.2
			c-10.9-22.9-105.2-25.3-174.2-2.5c-14.5,4.8-26.3,15.5-32.4,29.5c-18.7,42.9-48.9,140.5,35,189.8c6.5-16,13.9-28.9,20.3-38.3
			c-13.5-22.8-17.5-54,6.5-94.5c17.5,47.2,25.7,116.2,27.4,146.7c0.6,10-1.2,20.1-5.1,29.3l-0.4,1c-0.8,2,0.3,4.3,2.4,4.7
			c47.3,10.6,96.4,7.7,111.1,6.5c2.6-0.2,4.8-2.1,5.4-4.6C504.1,1276.9,501.6,1140.7,485.2,1106.2z"/>
		
			<linearGradient id="SVGID_00000140735009452337104270000014315447616740252584_" gradientUnits="userSpaceOnUse" x1="1162.5776" y1="1142.509" x2="1177.9005" y2="1062.0635" gradientTransform="matrix(1 0 0 1 -772.8065 0)">
			<stop  offset="0" style="stop-color:#F9B776"/>
			<stop  offset="1" style="stop-color:#F47960"/>
		</linearGradient>
		<path style="fill:url(#SVGID_00000140735009452337104270000014315447616740252584_);" d="M382,1028.7c0,0-4.8,50.6-9,65.5
			c-0.6,2.3,0.3,4.7,2.4,5.8c7.1,4.1,24.3,10.7,47.7-0.7c3.8-1.9,6.1-5.8,5.9-10l-2.1-48.9L382,1028.7z"/>
		<g>
			
				<linearGradient id="SVGID_00000177463845536212765860000010461943248679100071_" gradientUnits="userSpaceOnUse" x1="1204.0392" y1="994.9167" x2="1116.6124" y2="1061.8116" gradientTransform="matrix(1 0 0 1 -772.8065 0)">
				<stop  offset="0" style="stop-color:#F9B776"/>
				<stop  offset="1" style="stop-color:#F47960"/>
			</linearGradient>
			<path style="fill:url(#SVGID_00000177463845536212765860000010461943248679100071_);" d="M428,964c0,0,15.3,35.1,16.3,53.6
				c1,18.4,5,30.4-16.3,34.1c-21.3,3.7-39.3-6.9-49-25.3c0,0-15.2-28.3-11.8-39.9C370.6,974.9,428,964,428,964z"/>
			
				<linearGradient id="SVGID_00000030469416751404449190000011810998543925038751_" gradientUnits="userSpaceOnUse" x1="1142.4946" y1="941.9506" x2="1223.9191" y2="1046.7845" gradientTransform="matrix(1 0 0 1 -772.8065 0)">
				<stop  offset="0" style="stop-color:#2B3582"/>
				<stop  offset="1" style="stop-color:#150E42"/>
			</linearGradient>
			<path style="fill:url(#SVGID_00000030469416751404449190000011810998543925038751_);" d="M386.3,1013.2l1.2-0.5
				c1.5-0.7,2.2-2.5,1.4-4c-3-5.8-8.9-19.1-1.3-22.2c9.8-4,48.4-11.9,56.7-25.6c8-13.2,0.9-30.2-9.8-35c-0.7-0.3-1.6-0.1-1.9,0.6
				l-0.9,1.7c-0.6,1.2-2.3,1-2.7-0.3l0,0c-0.3-1.2-1.9-1.4-2.6-0.4c-2.6,4.1-9.5,10.8-28,14.2c-26.3,4.9-43.7,15.5-44.1,33.7
				c0,1.2-1.3,1.8-2.2,1.2c-1.9-1.2-5-1.7-9.2,1.8c-7.2,6.1-4.3,21.8,11.6,34.8c0.8,0.6,0.7,1.8-0.1,2.3c-2.9,1.9-7.2,6.3,3.9,12.2
				c11.5,6.1,20,5.6,23.3,5.1c0.8-0.1,1.3-0.9,1.2-1.7l-3.5-16c-0.2-0.9,0.5-1.8,1.4-1.8H386.3z"/>
			
				<linearGradient id="SVGID_00000137102085648518233920000014776730520281062828_" gradientUnits="userSpaceOnUse" x1="1193.1949" y1="980.7442" x2="1105.7684" y2="1047.6389" gradientTransform="matrix(1 0 0 1 -772.8065 0)">
				<stop  offset="0" style="stop-color:#F9B776"/>
				<stop  offset="1" style="stop-color:#F47960"/>
			</linearGradient>
			<path style="fill:url(#SVGID_00000137102085648518233920000014776730520281062828_);" d="M387,1016.6c0,0-5.8-22.4-15.9-16.1
				c-10.1,6.3,5.2,25.1,13.3,26L387,1016.6z"/>
		</g>
		
			<linearGradient id="SVGID_00000086692799137693840700000010938045388578333355_" gradientUnits="userSpaceOnUse" x1="1171.5306" y1="1302.4161" x2="1131.1947" y2="1362.92" gradientTransform="matrix(1 0 0 1 -772.8065 0)">
			<stop  offset="0" style="stop-color:#F9B776"/>
			<stop  offset="1" style="stop-color:#F47960"/>
		</linearGradient>
		<path style="fill:url(#SVGID_00000086692799137693840700000010938045388578333355_);" d="M357.9,1320c0,0,5.8-9.6,19.2-9.6
			s28.8,24.9,28.8,24.9s-21.1,9.6-28.8,17.3C369.4,1360.3,357.9,1335.4,357.9,1320z"/>
	</g>
</g>
</svg>
