<?xml version="1.0" encoding="utf-8"?>
<!-- Generator: Adobe Illustrator 28.0.0, SVG Export Plug-In . SVG Version: 6.00 Build 0)  -->
<svg version="1.1" id="Camada_2_00000151523757130967419530000013297415665358537143_"
	 xmlns="http://www.w3.org/2000/svg" xmlns:xlink="http://www.w3.org/1999/xlink" x="0px" y="0px" viewBox="0 0 915.7 908.4"
	 style="enable-background:new 0 0 915.7 908.4;" xml:space="preserve">
<style type="text/css">
	.st0{opacity:0.62;}
	.st1{fill:#DDDDDD;}
	.st2{fill:#EDEDED;}
</style>
<g class="st0">
	<g>
		<g>
			<path class="st1" d="M731.6,805.1l155.5-433.3C935.8,236.3,858,84.5,713.6,32.6S412.5,48.5,363.9,184S393,471.3,537.5,523.1
				c34.7,12.5,70.1,17.9,104.5,17.3l-31.9,88.8c-23.2,64.7,10.4,136,75.1,159.2L731.6,805.1z M678.2,403.9
				c-49.6,23.4-114.7-10.4-145.4-75.5c-30.7-65.1-15.4-136.8,34.2-160.2c49.6-23.4,114.7,10.4,145.4,75.5
				C743.1,308.8,727.8,380.5,678.2,403.9z"/>
			<path class="st2" d="M804.3,476.3c-125.8,59.4-275.9,5.5-335.3-120.3C409.6,230.1,463.5,80,589.3,20.6c3.8-1.8,7.7-3.5,11.5-5.1
				c-105.7,4.9-201,68.1-237,168.4C315.3,319.4,393,471.3,537.5,523.1c34.7,12.5,70.1,17.9,104.5,17.3l-31.9,88.8
				c-23.2,64.7,10.4,136,75.1,159.2l46.4,16.6l132-367.9C846.2,452.6,826.4,465.9,804.3,476.3z"/>
		</g>
		<path class="st1" d="M592,622.7l22.8-63.6c-7.1-0.5-14.1-1.2-21-2.2c-2.3-0.3-4.7-0.7-7-1.1c-18.9-3.1-37.6-7.9-55.8-14.4
			c-24.5-8.8-47.7-20.5-69.2-34.9c-60.1-40.3-101.7-98.4-120.4-162.1l-88.9,42l56,157.8L177.1,421.9L14.1,498.8l140.1,394.5
			l192.7-90.9L295,657.7l120.7,112.2L563.8,700l20.9-9.9C581.7,667.6,584.1,644.6,592,622.7z"/>
	</g>
</g>
</svg>
