<?xml version="1.0" encoding="utf-8"?>
<!-- Generator: Adobe Illustrator 28.0.0, SVG Export Plug-In . SVG Version: 6.00 Build 0)  -->
<svg version="1.1" xmlns="http://www.w3.org/2000/svg" xmlns:xlink="http://www.w3.org/1999/xlink" x="0px" y="0px"
	 viewBox="0 0 931.9 735.3" style="enable-background:new 0 0 931.9 735.3;" xml:space="preserve">
<style type="text/css">
	.st0{fill:#C7125C;}
</style>
<g id="BACKGROUND_2">
</g>
<g id="OBJECTS">
	<g>
		<g>
			<path class="st0" d="M918.1,484.3c-4.3,27.3-29.1,41-50.8,41.9c-21.8,0.9-43.9-6.1-65.1-0.1c-21.3,6.1-41.6,33.5-33.9,59.5
				c1.8,6.1,5,11.5,6.1,17.9c2.9,15.9-8.3,31-20.5,35.9c-12.2,4.9-25.3,2.9-38,4.3c-12.7,1.4-26.6,7.6-32,22.4
				c-6.3,17.2,1.3,39.2-5.9,55.8c-2.8,6.4-7.1,10.6-12.2,13.4H42.5c-18.7,0-33.8-15.1-33.8-33.8V33.8C8.7,15.1,23.8,0,42.5,0h503.3
				c23.7,0,45.7,17.5,59.2,46.2c0.1,0.1,0.1,0.3,0.2,0.4c13.3,27.9,38.3,43.5,63.2,50.5c24.9,7,50.7,7,76,11.6
				c29.2,5.4,58.8,17.9,79.6,44.6c20.8,26.7,30.4,70.2,16.6,103.5c-12.9,31.3-44.1,52.3-43.7,87.7c0.3,25.3,17.7,45.1,36,55
				c18.2,9.9,38.4,13.3,56,24.8C906.5,435.8,922,459.5,918.1,484.3z"/>
		</g>
	</g>
	<g>
		<g>
			<path class="st0" d="M881.7,702.4c-4.3,27.3-29.1,41-50.8,41.9c-21.8,0.9-43.9-6.1-65.1-0.1c-21.3,6.1-41.6,33.5-33.9,59.5
				c1.8,6.1,5,11.5,6.1,17.9c2.9,15.9-8.3,31-20.5,35.9c-12.2,4.9-25.3,2.9-38,4.3c-12.7,1.4-26.6,7.6-32,22.4
				c-6.3,17.2,1.3,39.2-5.9,55.8c-2.8,6.4-7.1,10.6-12.2,13.4H6.1c-18.7,0-33.8-15.1-33.8-33.8V251.9c0-18.7,15.1-33.8,33.8-33.8
				h503.3c23.7,0,45.7,17.5,59.2,46.2c0.1,0.1,0.1,0.3,0.2,0.4c13.3,27.9,38.3,43.5,63.2,50.5c24.9,7,50.7,7,76,11.6
				c29.2,5.4,58.8,17.9,79.6,44.6c20.8,26.7,30.4,70.2,16.6,103.5c-12.9,31.3-44.1,52.3-43.7,87.7c0.3,25.3,17.7,45.1,36,55
				c18.2,9.9,38.4,13.3,56,24.8C870.2,653.9,885.6,677.6,881.7,702.4z"/>
		</g>
	</g>
</g>
</svg>
