<?xml version="1.0" encoding="utf-8"?>
<!-- Generator: Adobe Illustrator 27.2.0, SVG Export Plug-In . SVG Version: 6.00 Build 0)  -->
<svg version="1.1" id="Camada_2_00000100340338095802766130000009790569361554702467_"
	 xmlns="http://www.w3.org/2000/svg" xmlns:xlink="http://www.w3.org/1999/xlink" x="0px" y="0px" viewBox="0 0 212 175.1"
	 style="enable-background:new 0 0 212 175.1;" xml:space="preserve">
<style type="text/css">
	.st0{fill:#D3D3D3;}
	.st1{fill:#EFEFEF;}
	.st2{fill:#E5E5E5;}
</style>
<g id="Camada_1-2">
	<g>
		<g>
			<path class="st0" d="M13.5,155.2c0,0.6,0.1,1.3,0.1,1.6h-1.2c-0.1-0.2-0.1-0.5-0.1-0.9c-0.2,0.5-0.8,1.1-2.2,1.1
				c-1.7,0-2.4-1.1-2.4-2.2c0-1.6,1.2-2.3,3.3-2.3h1.2v-0.6c0-0.6-0.2-1.4-1.5-1.4c-1.2,0-1.4,0.6-1.5,1.1H8.1
				c0.1-1,0.7-2.1,2.7-2.1c1.7,0,2.7,0.7,2.7,2.3V155.2L13.5,155.2L13.5,155.2z M12.3,153.3h-1.1c-1.4,0-2.2,0.4-2.2,1.4
				c0,0.7,0.5,1.3,1.4,1.3c1.7,0,1.9-1.1,1.9-2.4L12.3,153.3L12.3,153.3z"/>
			<path class="st0" d="M21.4,156.1c0,2.3-0.9,3.6-3.2,3.6c-2.1,0-2.8-1.2-2.9-2.2h1.2c0.2,0.8,0.8,1.2,1.7,1.2c1.6,0,2-1,2-2.6
				v-0.6c-0.4,0.8-1,1.2-2.2,1.2c-1.7,0-2.9-1.4-2.9-3.5c0-2.3,1.4-3.7,3.1-3.7c1.4,0,1.9,0.6,2.1,1.1c0-0.3,0-0.8,0.1-0.9h1.2
				c0,0.4,0,1.4,0,2.1L21.4,156.1L21.4,156.1L21.4,156.1z M16.4,153.2c0,1.5,0.8,2.5,1.9,2.5c1.5,0,2-1,2-2.6s-0.4-2.5-1.9-2.5
				C17,150.5,16.4,151.6,16.4,153.2z"/>
			<path class="st0" d="M24.3,153.4c0,1.4,0.7,2.5,1.9,2.5c1.1,0,1.5-0.6,1.7-1.1h1.2c-0.3,0.9-1,2.1-3,2.1c-2.2,0-3.1-1.8-3.1-3.6
				c0-2.1,1.1-3.8,3.2-3.8c2.3,0,3,1.8,3,3.4c0,0.2,0,0.4,0,0.6L24.3,153.4L24.3,153.4z M26.9,146.5l1.5,2.1h-1.2l-1-1.4l-0.9,1.4
				h-1.2l1.5-2.1C25.7,146.5,26.9,146.5,26.9,146.5z M28.1,152.6c0-1.2-0.6-2.1-1.8-2.1s-1.8,0.9-1.9,2.1H28.1z"/>
			<path class="st0" d="M30.9,151.4c0-0.6,0-1.2,0-1.8h1.2c0,0.2,0,0.9,0,1.2c0.3-0.6,0.9-1.3,2.2-1.3s2.4,0.8,2.4,2.7v4.6h-1.2
				v-4.4c0-1.1-0.4-1.8-1.5-1.8c-1.3,0-1.9,1-1.9,2.4v3.8h-1.2L30.9,151.4L30.9,151.4L30.9,151.4z"/>
			<path class="st0" d="M44.4,154.6c-0.3,1.2-1.1,2.3-2.9,2.3c-2,0-3.2-1.4-3.2-3.7c0-2,1.1-3.8,3.2-3.8s2.8,1.5,2.8,2.4h-1.2
				c-0.2-0.7-0.6-1.4-1.7-1.4c-1.2,0-2,1.1-2,2.7s0.7,2.7,1.9,2.7c0.9,0,1.4-0.5,1.7-1.3L44.4,154.6L44.4,154.6z"/>
			<path class="st0" d="M46,146.5h1.2v1.5H46V146.5z M46,149.6h1.2v7.1H46V149.6z"/>
			<path class="st0" d="M54.5,155.2c0,0.6,0.1,1.3,0.1,1.6h-1.2c-0.1-0.2-0.1-0.5-0.1-0.9c-0.2,0.5-0.8,1.1-2.2,1.1
				c-1.7,0-2.4-1.1-2.4-2.2c0-1.6,1.2-2.3,3.3-2.3h1.2v-0.6c0-0.6-0.2-1.4-1.5-1.4c-1.2,0-1.4,0.6-1.5,1.1H49c0.1-1,0.7-2.1,2.7-2.1
				c1.7,0,2.7,0.7,2.7,2.3L54.5,155.2L54.5,155.2L54.5,155.2z M53.3,153.3h-1.2c-1.4,0-2.2,0.4-2.2,1.4c0,0.7,0.5,1.3,1.4,1.3
				c1.7,0,1.9-1.1,1.9-2.4L53.3,153.3L53.3,153.3z"/>
			<path class="st0" d="M66,146.5v8.3c0,0.7,0,1.3,0,2h-1.2c0-0.2-0.1-0.7-0.1-1c-0.3,0.7-1.1,1.2-2.2,1.2c-1.8,0-2.9-1.5-2.9-3.6
				s1.2-3.8,3.2-3.8c1.2,0,1.8,0.5,2,0.9v-3.9L66,146.5L66,146.5z M60.9,153.2c0,1.7,0.8,2.6,1.9,2.6c1.7,0,2-1.2,2-2.8
				s-0.3-2.6-1.9-2.6C61.7,150.5,60.9,151.5,60.9,153.2z"/>
			<path class="st0" d="M68.1,146.5h1.2v1.5h-1.2V146.5z M68.1,149.6h1.2v7.1h-1.2V149.6z"/>
			<path class="st0" d="M77.2,156.1c0,2.3-0.9,3.6-3.2,3.6c-2.2,0-2.8-1.2-2.9-2.2h1.2c0.2,0.8,0.8,1.2,1.7,1.2c1.6,0,2-1,2-2.6
				v-0.6c-0.4,0.8-1,1.2-2.2,1.2c-1.7,0-2.9-1.4-2.9-3.5c0-2.3,1.3-3.7,3.1-3.7c1.3,0,1.9,0.6,2.1,1.1c0-0.3,0-0.8,0.1-0.9h1.2
				c0,0.4,0,1.4,0,2.1L77.2,156.1C77.3,156.1,77.2,156.1,77.2,156.1z M72.2,153.2c0,1.5,0.8,2.5,1.9,2.5c1.5,0,2-1,2-2.6
				s-0.4-2.5-1.9-2.5C72.9,150.5,72.2,151.6,72.2,153.2z"/>
			<path class="st0" d="M79.3,146.5h1.2v1.5h-1.2V146.5z M79.3,149.6h1.2v7.1h-1.2V149.6z"/>
			<path class="st0" d="M81.8,149.6H83v-2.1h1.2v2.1h1.6v1h-1.6v4.1c0,0.7,0.2,1,0.8,1c0.2,0,0.4,0,0.6-0.1v0.9
				c-0.3,0.1-0.7,0.1-1.1,0.1c-1.1,0-1.6-0.6-1.6-1.8v-4.4h-1.2L81.8,149.6L81.8,149.6z"/>
			<path class="st0" d="M92.4,155.2c0,0.6,0.1,1.3,0.1,1.6h-1.2c-0.1-0.2-0.1-0.5-0.1-0.9c-0.2,0.5-0.8,1.1-2.2,1.1
				c-1.7,0-2.4-1.1-2.4-2.2c0-1.6,1.2-2.3,3.3-2.3h1.2v-0.6c0-0.6-0.2-1.4-1.5-1.4c-1.2,0-1.4,0.6-1.5,1.1H87c0.1-1,0.7-2.1,2.7-2.1
				c1.7,0,2.7,0.7,2.7,2.3L92.4,155.2L92.4,155.2L92.4,155.2z M91.2,153.3H90c-1.4,0-2.2,0.4-2.2,1.4c0,0.7,0.5,1.3,1.4,1.3
				c1.7,0,1.9-1.1,1.9-2.4L91.2,153.3L91.2,153.3z"/>
			<path class="st0" d="M94.6,156.7v-10.3h1.2v10.3H94.6z"/>
		</g>
		<g>
			<g>
				<path class="st1" d="M123.9,175.1l72-72c22.5-22.5,21.3-60.2-2.7-84.2S131.5-6.3,109,16.2s-21.3,60.2,2.7,84.2
					c5.8,5.8,12.3,10.2,19.3,13.3l-14.8,14.8c-10.8,10.8-10.8,28.2,0,38.9L123.9,175.1L123.9,175.1z M151,89.8
					c-12.1,0-22-12.9-22-28.8s9.8-28.8,22-28.8s22,12.9,22,28.8S163.2,89.8,151,89.8z"/>
				<path class="st2" d="M169.4,116.2c-30.8,0-55.7-24.9-55.7-55.7s24.9-55.7,55.7-55.7c0.9,0,1.9,0,2.8,0.1
					c-21.6-9-46.6-5.3-63.3,11.3c-22.5,22.5-21.3,60.2,2.7,84.2c5.8,5.8,12.3,10.2,19.3,13.3l-14.8,14.8
					c-10.8,10.8-10.8,28.2,0,38.9l7.7,7.7l61.2-61.2C180.1,115.4,174.8,116.2,169.4,116.2z"/>
			</g>
			<path class="st1" d="M113.1,125.4l10.6-10.6c-1.4-0.8-2.7-1.6-4-2.4c-0.4-0.3-0.9-0.6-1.3-0.9c-3.5-2.4-6.8-5.1-9.8-8.2
				c-4.1-4.1-7.6-8.6-10.5-13.5C89.8,76.1,87,60.6,89.3,46.1H67.5L63.8,83L49.1,46.1H9.2L0,138.2h47.1l3.3-33.8L64,138.2h41.3
				C106.8,133.4,109.5,129.1,113.1,125.4z"/>
		</g>
	</g>
</g>
</svg>
