<?xml version="1.0" encoding="utf-8"?>
<!-- Generator: Adobe Illustrator 27.2.0, SVG Export Plug-In . SVG Version: 6.00 Build 0)  -->
<svg version="1.1" id="Camada_2_00000100340338095802766130000009790569361554702467_"
	 xmlns="http://www.w3.org/2000/svg" xmlns:xlink="http://www.w3.org/1999/xlink" x="0px" y="0px" viewBox="0 0 212 175.1"
	 style="enable-background:new 0 0 212 175.1;" xml:space="preserve">
<style type="text/css">
	.st0{fill:#1C1C1C;}
	.st1{fill:#6F0BD7;}
	.st2{fill:url(#SVGID_1_);}
</style>
<g>
	<g>
		<g>
			<path class="st0" d="M13.5,155.2c0,0.6,0.1,1.3,0.1,1.5h-1.2c-0.1-0.2-0.1-0.5-0.1-0.9c-0.2,0.5-0.8,1.1-2.2,1.1
				c-1.7,0-2.4-1.1-2.4-2.2c0-1.6,1.2-2.3,3.3-2.3c0.5,0,0.9,0,1.2,0v-0.6c0-0.6-0.2-1.4-1.5-1.4c-1.2,0-1.4,0.6-1.5,1.1H8.1
				c0.1-1,0.7-2.1,2.7-2.1c1.7,0,2.7,0.7,2.7,2.3V155.2z M12.3,153.3c-0.2,0-0.8,0-1.1,0c-1.4,0-2.2,0.4-2.2,1.4
				c0,0.7,0.5,1.3,1.4,1.3c1.7,0,1.9-1.1,1.9-2.4V153.3z"/>
			<path class="st0" d="M21.4,156.1c0,2.3-0.9,3.6-3.3,3.6c-2.1,0-2.8-1.2-2.9-2.2h1.2c0.2,0.8,0.8,1.2,1.7,1.2c1.6,0,2-1,2-2.7
				v-0.6c-0.4,0.8-1,1.2-2.2,1.2c-1.7,0-2.9-1.4-2.9-3.5c0-2.3,1.3-3.7,3.1-3.7c1.4,0,1.9,0.6,2.1,1.1c0-0.3,0-0.8,0.1-0.9h1.2
				c0,0.4,0,1.4,0,2V156.1z M16.4,153.2c0,1.5,0.8,2.5,1.9,2.5c1.5,0,2-1,2-2.6c0-1.6-0.4-2.5-1.9-2.5
				C17,150.5,16.4,151.6,16.4,153.2z"/>
			<path class="st0" d="M24.3,153.4c0,1.4,0.7,2.5,1.9,2.5c1.1,0,1.5-0.6,1.7-1.1h1.2c-0.3,0.9-1,2.1-3,2.1c-2.2,0-3.1-1.8-3.1-3.6
				c0-2.1,1.1-3.8,3.2-3.8c2.3,0,3,1.8,3,3.3c0,0.2,0,0.4,0,0.6H24.3z M26.8,146.5l1.6,2.1h-1.2l-0.9-1.4l-0.9,1.4h-1.2l1.5-2.1
				H26.8z M28,152.6c0-1.2-0.6-2.1-1.8-2.1c-1.2,0-1.8,0.9-1.9,2.1H28z"/>
			<path class="st0" d="M30.8,151.4c0-0.6,0-1.2,0-1.8H32c0,0.2,0.1,1,0,1.2c0.3-0.6,0.9-1.3,2.2-1.3c1.3,0,2.4,0.8,2.4,2.7v4.6
				h-1.2v-4.4c0-1.1-0.4-1.8-1.5-1.8c-1.3,0-1.9,1-1.9,2.4v3.8h-1.2V151.4z"/>
			<path class="st0" d="M44.3,154.6c-0.3,1.2-1.1,2.3-2.9,2.3c-2,0-3.2-1.4-3.2-3.7c0-2,1.1-3.8,3.2-3.8c2,0,2.7,1.5,2.8,2.4h-1.2
				c-0.2-0.7-0.6-1.3-1.7-1.3c-1.3,0-2,1.1-2,2.7c0,1.6,0.7,2.7,1.9,2.7c0.9,0,1.4-0.5,1.7-1.3H44.3z"/>
			<path class="st0" d="M45.8,146.5H47v1.5h-1.2V146.5z M45.8,149.7H47v7.1h-1.2V149.7z"/>
			<path class="st0" d="M54.4,155.2c0,0.6,0.1,1.3,0.1,1.5h-1.2c-0.1-0.2-0.1-0.5-0.1-0.9c-0.2,0.5-0.8,1.1-2.2,1.1
				c-1.7,0-2.4-1.1-2.4-2.2c0-1.6,1.2-2.3,3.3-2.3c0.5,0,0.9,0,1.2,0v-0.6c0-0.6-0.2-1.4-1.5-1.4c-1.2,0-1.4,0.6-1.5,1.1H49
				c0.1-1,0.7-2.1,2.7-2.1c1.7,0,2.7,0.7,2.7,2.3V155.2z M53.2,153.3c-0.2,0-0.8,0-1.1,0c-1.4,0-2.2,0.4-2.2,1.4
				c0,0.7,0.5,1.3,1.4,1.3c1.7,0,1.9-1.1,1.9-2.4V153.3z"/>
			<path class="st0" d="M66,146.5v8.3c0,0.7,0,1.3,0,2h-1.2c0-0.2-0.1-0.7-0.1-1c-0.3,0.7-1.1,1.2-2.2,1.2c-1.8,0-2.9-1.5-2.9-3.6
				c0-2.2,1.2-3.8,3.2-3.8c1.3,0,1.8,0.5,2,0.9v-3.9H66z M60.8,153.2c0,1.7,0.8,2.6,1.9,2.6c1.7,0,2-1.2,2-2.8
				c0-1.6-0.3-2.6-1.9-2.6C61.6,150.5,60.8,151.5,60.8,153.2z"/>
			<path class="st0" d="M68,146.5h1.2v1.5H68V146.5z M68,149.7h1.2v7.1H68V149.7z"/>
			<path class="st0" d="M77.2,156.1c0,2.3-0.9,3.6-3.3,3.6c-2.1,0-2.8-1.2-2.9-2.2h1.2c0.2,0.8,0.8,1.2,1.7,1.2c1.6,0,2-1,2-2.7
				v-0.6c-0.4,0.8-1,1.2-2.2,1.2c-1.7,0-2.9-1.4-2.9-3.5c0-2.3,1.3-3.7,3.1-3.7c1.4,0,1.9,0.6,2.1,1.1c0-0.3,0-0.8,0.1-0.9h1.2
				c0,0.4,0,1.4,0,2V156.1z M72.1,153.2c0,1.5,0.8,2.5,1.9,2.5c1.5,0,2-1,2-2.6c0-1.6-0.4-2.5-1.9-2.5
				C72.8,150.5,72.1,151.6,72.1,153.2z"/>
			<path class="st0" d="M79.3,146.5h1.2v1.5h-1.2V146.5z M79.3,149.7h1.2v7.1h-1.2V149.7z"/>
			<path class="st0" d="M81.7,149.7h1.2v-2.1h1.2v2.1h1.6v1h-1.6v4.2c0,0.7,0.2,1,0.8,1c0.2,0,0.4,0,0.6-0.1v0.9
				c-0.3,0.1-0.7,0.1-1.1,0.1c-1.1,0-1.6-0.6-1.6-1.7v-4.4h-1.2V149.7z"/>
			<path class="st0" d="M92.3,155.2c0,0.6,0.1,1.3,0.1,1.5h-1.2c-0.1-0.2-0.1-0.5-0.1-0.9c-0.2,0.5-0.8,1.1-2.2,1.1
				c-1.7,0-2.4-1.1-2.4-2.2c0-1.6,1.2-2.3,3.3-2.3c0.5,0,0.9,0,1.2,0v-0.6c0-0.6-0.2-1.4-1.5-1.4c-1.2,0-1.4,0.6-1.5,1.1h-1.2
				c0.1-1,0.7-2.1,2.7-2.1c1.7,0,2.7,0.7,2.7,2.3V155.2z M91.1,153.3c-0.2,0-0.8,0-1.1,0c-1.4,0-2.2,0.4-2.2,1.4
				c0,0.7,0.5,1.3,1.4,1.3c1.7,0,1.9-1.1,1.9-2.4V153.3z"/>
			<path class="st0" d="M94.5,156.7v-10.3h1.2v10.3H94.5z"/>
		</g>
	</g>
	<g>
		<g>
			<path class="st1" d="M123.9,175.1l72-72c22.5-22.5,21.3-60.2-2.7-84.2s-61.7-25.2-84.2-2.7s-21.3,60.2,2.7,84.2
				c5.8,5.8,12.3,10.2,19.3,13.3l-14.8,14.8c-10.8,10.8-10.8,28.2,0,38.9L123.9,175.1z M151,89.8c-12.1,0-22-12.9-22-28.8
				c0-15.9,9.8-28.8,22-28.8c12.1,0,22,12.9,22,28.8C173,76.9,163.2,89.8,151,89.8z"/>
			<linearGradient id="SVGID_1_" gradientUnits="userSpaceOnUse" x1="92.7974" y1="87.555" x2="185.0099" y2="87.555">
				<stop  offset="0" style="stop-color:#5B0B83"/>
				<stop  offset="1" style="stop-color:#6F0BD7"/>
			</linearGradient>
			<path class="st2" d="M169.4,116.2c-30.8,0-55.7-24.9-55.7-55.7c0-30.8,24.9-55.7,55.7-55.7c0.9,0,1.9,0,2.8,0.1
				c-21.6-9-46.6-5.3-63.3,11.3c-22.5,22.5-21.3,60.2,2.7,84.2c5.8,5.8,12.3,10.2,19.3,13.3l-14.8,14.8c-10.8,10.8-10.8,28.2,0,38.9
				l7.7,7.7L185,114C180.1,115.4,174.8,116.2,169.4,116.2z"/>
		</g>
		<path class="st0" d="M113.1,125.4l10.6-10.6c-1.4-0.8-2.7-1.6-4-2.4c-0.4-0.3-0.9-0.6-1.3-0.9c-3.5-2.4-6.8-5.1-9.8-8.2
			c-4.1-4.1-7.6-8.6-10.5-13.5C89.8,76.1,87,60.6,89.3,46.1H67.5l-3.7,36.9L49.1,46.1H9.2L0,138.2h47.1l3.3-33.8L64,138.2h36.2h5.1
			C106.8,133.4,109.5,129.1,113.1,125.4z"/>
	</g>
</g>
</svg>
